<svg width="558" height="600" xmlns="http://www.w3.org/2000/svg" xmlns:xlink="http://www.w3.org/1999/xlink">
 <!-- Created with Method Draw - http://github.com/duopixel/Method-Draw/ -->

 <g>
  <title>background</title>
  <g display="none" overflow="visible" y="0" x="0" height="100%" width="100%" id="canvasGrid">
   <rect fill="url(#gridpattern)" stroke-width="0" y="0" x="0" height="100%" width="100%"/>
  </g>
 </g>
 <g>
  <title>Layer 1</title>
  <defs>
   <g transform="matrix(1,0,0,1,-0.35,-0.65) " id="svg_4">
    <path id="svg_8" fill-rule="evenodd" fill="#9e6124" d="m4.65,8.7l0.6,0.5l0.3,1.65l0.1,0.45l0,0.5l-0.15,0.85q-0.5,0.8 -1.15,0.85q-2.8,0.6 -4,1.85l0.25,-3.55q0,-0.85 0.65,-1.55l0.65,-0.6l0.85,-0.7l0.95,-0.3l0.95,0.05"/>
    <path id="svg_9" stroke-width="0.05" stroke-opacity="0.50196" stroke-linejoin="round" stroke-linecap="round" stroke="#1b1b1b" fill="none" d="m4.65,8.7l0.6,0.5l0.3,1.65l0.1,0.45l0,0.5l-0.15,0.85q-0.5,0.8 -1.15,0.85q-2.8,0.6 -4,1.85l0.25,-3.55q0,-0.85 0.65,-1.55l0.65,-0.6l0.85,-0.7l0.95,-0.3l0.95,0.05z"/>
    <path id="svg_10" fill-rule="evenodd" fill="#9e6124" d="m5.55,1.05l0.9,-0.15l0.05,-0.05q2.8,-0.8 5.15,2.05l0.5,0.35l0.85,0.8q1,1.6 1,2.8q-1,-1.95 -2.5,-2.45l-0.8,-0.2l-0.05,0l-1.45,1.6l-1,1.35l-1.4,1.55l0.3,1.35q0.1,1.1 -0.2,1.8l-0.65,0.75l-0.35,0.15l0,0.05q0.3,-1.95 -0.45,-3.25l-1.55,0.45l-0.05,0l-1,-1.75l-0.2,-4.45q1.45,-2.5 2.4,-2.7l0.05,0l0.45,-0.05m0.95,-0.2q2.05,0.6 2.45,1.2q-0.4,-0.6 -2.45,-1.2m-3.65,7.4q0.35,0.85 1.05,1.75q-0.7,-0.9 -1.05,-1.75m3.95,0.45l-0.2,-0.4l0.2,0.4m0.05,-5.1q-2.5,1.95 -2.3,5.05q-0.2,-3.1 2.3,-5.05"/>
    <path id="svg_11" fill-rule="evenodd" fill="#febf74" d="m9.2,5.8l1.45,-1.6l0.05,0l0.8,0.2l0.4,1.35q-0.05,1.25 -0.5,1.75l0.45,1.15l-0.1,1.7q-0.1,1.05 -0.7,1.7q0.45,-1.4 -0.95,-3.2q0,-1.75 -0.9,-3.05"/>
    <path id="svg_12" fill-rule="evenodd" fill="#ffce8c" d="m9.2,5.8q0.9,1.3 0.9,3.05q1.4,1.8 0.95,3.2q-0.3,0.3 -1.25,0.5l-2.6,-0.55l-0.25,-0.15q0.3,-0.7 0.15,-1.8l-0.3,-1.35l0.3,1.35q0.15,1.1 -0.15,1.8l-0.05,0q0.3,-0.7 0.2,-1.8l-0.3,-1.35l1.4,-1.55l1,-1.35"/>
    <path id="svg_13" stroke-width="0.05" stroke-opacity="0.30196" stroke-linejoin="round" stroke-linecap="round" stroke="#1f1f1f" fill="none" d="m6.5,0.85l-0.05,0m4.6,11.2q0.6,-0.65 0.7,-1.7l0.1,-1.7l-0.45,-1.15q0.45,-0.5 0.5,-1.75l-0.4,-1.35m-4.3,7.6l2.6,0.55q0.95,-0.2 1.25,-0.5m-2.1,-10q-0.4,-0.6 -2.45,-1.2m-1.95,7.8q-0.2,-3.1 2.3,-5.05"/>
    <path id="svg_14" stroke-width="0.05" stroke-opacity="0.50196" stroke-linejoin="round" stroke-linecap="round" stroke="#1c1c1c" fill="none" d="m6.45,0.85l-0.9,0.2m6.6,2.2l-0.5,-0.35q-2.35,-2.9 -5.2,-2.05m5.05,3.55l-0.8,-0.2m-3.9,4.5l0.3,1.35q0.15,1.1 -0.15,1.8l-0.7,0.75l-0.35,0.15m6.25,-9.5l0.85,0.8q1,1.6 1,2.8q-1,-1.95 -2.5,-2.45m-8.65,3.85l-0.2,-4.45q1.45,-2.5 2.4,-2.7l0.05,0l0.45,-0.05m1.05,7.25l0.2,0.4m-2.9,1.3q-0.7,-0.9 -1.05,-1.75"/>
    <path id="svg_15" stroke-width="0.05" stroke-linejoin="round" stroke-linecap="round" stroke="#52351b" fill="none" d="m11.15,8.25l0.35,-0.3m-2.7,0.95l0.85,-0.2"/>
    <path id="svg_16" fill-rule="evenodd" fill="#ffce8c" d="m5.85,11.1l-0.75,-0.15l-0.55,-0.55q-0.95,-0.6 -0.8,-1.55q0.2,-0.6 0.75,-0.6l0.6,0.2l0.6,0.6l0.1,0.1q0.35,1.8 0.05,1.95"/>
    <path id="svg_17" stroke-width="0.05" stroke-opacity="0.30196" stroke-linejoin="round" stroke-linecap="round" stroke="#1f1f1f" fill="none" d="m5.7,9.05l-0.6,-0.6l-0.6,-0.2q-0.55,0 -0.75,0.6q-0.15,0.95 0.8,1.55l0.55,0.55l0.75,0.15"/>
   </g>
  </defs>
  <g stroke="null" id="svg_18">
   <g stroke="null" id="svg_6" transform="matrix(40.22249117760065,0,0,40.22249117760065,-12166594.813490115,-9124445.168996647) ">
    <use stroke="null" x="302482.12284" y="226848.73823" id="svg_7" xlink:href="#svg_4" width="13.65" transform="matrix(1,0,0,1,0.35,0.65) " height="14.7"/>
   </g>
  </g>
 </g>
</svg>