<svg width="352" height="600" xmlns="http://www.w3.org/2000/svg" xmlns:xlink="http://www.w3.org/1999/xlink">
 <!-- Created with Method Draw - http://github.com/duopixel/Method-Draw/ -->

 <g>
  <title>background</title>
  <g display="none" overflow="visible" y="0" x="0" height="100%" width="100%" id="canvasGrid">
   <rect fill="url(#gridpattern)" stroke-width="0" y="0" x="0" height="100%" width="100%"/>
  </g>
 </g>
 <g>
  <title>Layer 1</title>
  <defs>
   <g transform="matrix(1,0,0,1,-1.1,-0.7) " id="svg_4">
    <path id="svg_8" fill-rule="evenodd" fill="#88b526" d="m5,9.85l0.25,-0.6q0.25,-0.7 1.5,-1.65l0.7,-0.45l1.8,-0.6l1,0l1,0.1l1.1,0.15l0.4,-0.4l0.55,-0.35l0.5,-0.15l0.15,-0.05l0.6,-0.05l0.45,0.15l0.45,0.35q0.15,0.3 -0.1,0.75l-0.05,0.1l0,0.05l0.05,0q0.75,0.1 1.35,0.6q0.5,0.5 0.45,1l-0.7,0.65l-0.25,0.05l0.75,2.45l0.05,1.7l-0.6,1.15l0.05,0.1l0.35,0.85l-0.15,0.3q-1.35,5.2 -2.1,5.9l-1.85,0.55l-1.75,0l-1.8,-1.65l-1.15,-2.45l-2.25,-1.2q-0.25,-0.1 -0.45,-1.3l-0.05,-0.3l-0.05,0l-0.45,0.5l-0.75,0.4l-0.45,-0.6l-0.5,-0.65l0.55,-1.05l-1.5,-0.15l0,-0.1l-0.35,-0.8l-0.55,-0.95q1.35,0.15 3.15,-1.1l0,-0.15l0.65,-1.1m10,-3.9q0.3,0.1 0.4,0.35l-0.05,0.75l0.05,-0.75q-0.1,-0.25 -0.4,-0.35m1.2,3.55l0.2,-0.1q0.65,-0.2 0.75,-0.6q-0.1,0.4 -0.75,0.6l-0.2,0.1"/>
    <path id="svg_9" stroke-width="0.05" stroke-opacity="0.50196" stroke-linejoin="round" stroke-linecap="round" stroke="#1f1f1f" fill="none" d="m7.45,7.15l-0.7,0.45q-1.3,0.95 -1.5,1.65l-0.25,0.6m2.45,-2.7l1.8,-0.6l1,0l1,0.1l1.1,0.15l0.4,-0.4l0.55,-0.35l0.5,-0.15l0.15,-0.05l0.6,-0.05l0.45,0.15m0.35,1.1l-0.05,0.1l0,0.05l0.05,0q0.75,0.1 1.35,0.6q0.5,0.5 0.45,1q-0.1,0.4 -0.75,0.6l-0.2,0.1l0.75,2.45l0.05,1.7m-0.2,2.1l-0.15,0.3q-1.35,5.2 -2.1,5.9m-3.6,0.55l-1.8,-1.65l-1.15,-2.45l-2.25,-1.2q-0.25,-0.1 -0.45,-1.3l-0.1,-0.3m-1.2,0.9l-0.45,-0.6l-0.55,-0.65l0.6,-1.05m-1.5,-0.25l-0.4,-0.85l-0.6,-0.95q1.4,0.2 3.25,-1.2l0.65,-1.1m10.35,-2.8l0.05,-0.75q-0.1,-0.25 -0.4,-0.35"/>
    <path id="svg_10" fill-rule="evenodd" fill-opacity="0.30196" fill="#252e0e" d="m10.9,11.1q1.9,2.1 0.9,3.2q2.15,4.4 1.4,6.95l-2.25,1.3q-1.1,-0.8 -1.8,-1.8q-1.05,-1.5 -1.15,-2.5l-2.35,-1.05l-0.35,-1.8l-1.25,1.1l-1,-1.25l0.55,-1.05l-1.65,-0.25l-0.8,-1.8q1.4,0.15 3.25,-1.2l0.85,-1.75q0.2,-0.7 1.5,-1.6q1.4,-1.05 2.5,-1.05l1,-0.05l1.05,0.15q-2.25,0.85 -1.8,1.7l0.15,0.1q2.5,0.6 2.45,2.35q-0.3,0.4 -1.2,0.3"/>
    <path id="svg_11" fill-rule="evenodd" fill="#ffffff" d="m14.9,15.4l0.6,-0.95l0.55,-0.05l0.5,0.55q-0.55,0.75 -1.5,0.6l-0.15,-0.15m-4.75,0.35l1,-0.8q0.65,-0.45 1.1,-0.25q0.3,0.35 0.4,1.05l-0.75,0.15l-1.75,-0.15"/>
    <path id="svg_12" stroke-width="0.05" stroke-linejoin="round" stroke-linecap="round" stroke="#384a24" fill="none" d="m14.9,15.4l0.6,-0.95l0.55,-0.05l0.5,0.55m-3.9,0.8q-0.1,-0.7 -0.4,-1.05q-0.45,-0.2 -1.1,0.25l-1,0.8"/>
    <path id="svg_13" fill-rule="evenodd" fill="#88b526" d="m12.15,22.05l0.1,0.35l0.2,-0.1q0.65,-0.25 1,0.15l0.15,-0.25l1.25,0.75q0.4,0.75 0.45,2.1l0,0.05l-0.45,-0.35l-0.55,-0.25l-0.2,-0.15l0.2,0.15l-0.2,-0.15l-0.05,0l-0.35,1.15l-0.25,0.4l-0.95,1.25l-0.95,1.25q0.3,-1.15 0.1,-3.15l-0.05,-0.95l-0.1,0.15q-0.75,0.6 -0.75,0.75q0.1,-2.85 1.4,-3.15m2.7,2.7l0.45,0.3l-0.45,-0.3"/>
    <path id="svg_14" stroke-width="0.05" stroke-opacity="0.30196" stroke-linejoin="round" stroke-linecap="round" stroke="#1f1f1f" fill="none" d="m13.6,22.2l1.25,0.75q0.45,0.75 0.45,2.15l0,-0.05l-0.45,-0.3l-0.55,-0.25m-0.2,-0.15l-0.4,1.15l-0.25,0.4l-0.95,1.25l-0.95,1.25q0.3,-1.15 0.1,-3.15l-0.05,-0.95l-0.1,0.15q-0.75,0.6 -0.75,0.75q0.1,-2.85 1.4,-3.15m1.95,2.3l0.2,0.15"/>
    <path id="svg_15" fill-rule="evenodd" fill-opacity="0.30196" fill="#252e0e" d="m11.5,28.4q0.25,-1.15 0.1,-3.15l-0.05,-0.95l-0.15,0.15l-0.7,0.75q0.1,-2.85 1.4,-3.15l0.15,0.35l0.2,-0.1l0.55,0.85l0.2,0.5q0.3,1.35 -0.75,3.5l-0.95,1.25"/>
    <path id="svg_16" fill-rule="evenodd" fill="#dcb87c" d="m11.25,22q0.15,-0.3 1.35,0.25q-0.05,-0.3 1.35,-0.5l0.15,0.55q-0.2,0.55 -0.9,0.5l-1,0l-0.85,-0.35l-0.1,-0.35l0,-0.1m1.95,0.8l-0.6,-0.55l0.6,0.55"/>
    <path id="svg_17" stroke-width="0.05" stroke-opacity="0.30196" stroke-linejoin="round" stroke-linecap="round" stroke="#1f1f1f" fill="none" d="m12.6,22.25l0.6,0.55"/>
    <path id="svg_18" fill-rule="evenodd" fill="#88b526" d="m11.15,7.05q-1.5,-0.15 -1.9,-3l0.9,0.7l0.2,0.1l-0.05,-0.95l-0.15,-2.35l-0.2,-0.85l2.4,2.25q0.7,0.65 0.85,1.45l0.2,-0.15l1.15,-0.8l-0.05,1.3q-0.3,1.55 -1.85,1.75q1.55,-0.2 1.85,-1.75q-0.3,1.6 -1.7,1.9l-0.15,-0.15l-0.65,0.3l-0.7,-0.15l-0.15,0.4"/>
    <path id="svg_19" stroke-width="0.05" stroke-opacity="0.30196" stroke-linejoin="round" stroke-linecap="round" stroke="#1f1f1f" fill="none" d="m14.5,4.75l0.05,-1.3l-1.15,0.8l-0.2,0.15q-0.15,-0.8 -0.85,-1.45l-2.4,-2.25l0.2,0.85l0.15,2.35l0.05,0.95l-0.2,-0.1l-0.9,-0.7q0.4,2.85 1.9,3m0.15,-0.4l0.7,0.15l0.65,-0.3q1.55,-0.2 1.85,-1.75l-3.2,1.9z"/>
    <path id="svg_20" fill-rule="evenodd" fill-opacity="0.30196" fill="#252e0e" d="m10.15,1.5q1.6,2.55 1.9,4l0.05,0.25l-0.1,1l-0.7,-0.15l-0.2,0.4q-1.5,-0.15 -1.85,-3l0.9,0.7l0.2,0.1l-0.05,-0.95l-0.15,-2.35"/>
    <path id="svg_21" fill-rule="evenodd" fill="#ff910b" d="m14,6.05q0.4,0.15 0.1,0.85q-0.35,0.8 -1.25,0.7q-0.4,0.25 -1.45,0q-0.9,-0.15 -1.15,-0.5q-0.15,-0.15 0,-0.5l0,-0.2q0.25,-0.4 1.85,0.4q0,-0.4 1.9,-0.75m-1.9,0.75q0.25,0.7 0.75,0.8q-0.5,-0.1 -0.75,-0.8"/>
    <path id="svg_22" stroke-width="0.05" stroke-opacity="0.30196" stroke-linejoin="round" stroke-linecap="round" stroke="#1f1f1f" fill="none" d="m14,6.05q0.4,0.15 0.1,0.85q-0.35,0.8 -1.25,0.7q-0.4,0.25 -1.45,0q-0.9,-0.15 -1.15,-0.5q-0.15,-0.15 0,-0.5m2.6,1q-0.5,-0.1 -0.75,-0.8"/>
   </g>
  </defs>
  <g stroke="null" id="svg_23">
   <g stroke="null" id="svg_6" transform="matrix(21.479639675275227,0,0,21.479639675275227,-6496954.411742472,-4872290.503822379) ">
    <use stroke="null" x="302469.33447" y="226832.39375" id="svg_7" xlink:href="#svg_4" width="16.05" transform="matrix(1,0,0,1,1.1,0.7) " height="27.7"/>
   </g>
  </g>
 </g>
</svg>