<svg width="507" height="600" xmlns="http://www.w3.org/2000/svg" xmlns:xlink="http://www.w3.org/1999/xlink">
 <!-- Created with Method Draw - http://github.com/duopixel/Method-Draw/ -->

 <g>
  <title>background</title>
  <g display="none" overflow="visible" y="0" x="0" height="100%" width="100%" id="canvasGrid">
   <rect fill="url(#gridpattern)" stroke-width="0" y="0" x="0" height="100%" width="100%"/>
  </g>
 </g>
 <g>
  <title>Layer 1</title>
  <defs>
   <g transform="matrix(1,0,0,1,2.8,7.35) " id="svg_6">
    <use id="svg_10" xlink:href="#svg_5" width="7.5" transform="matrix(1,0,0,1,-2.8,-7.35) " height="10.4"/>
   </g>
   <g transform="matrix(1,0,0,1,2.8,7.35) " id="svg_5">
    <path id="svg_11" fill-rule="evenodd" fill="#545035" d="m3.7,-6.8l0.1,2.45l-1.65,-0.5l-0.2,-1.9l1.75,-0.05"/>
    <path id="svg_12" stroke-width="0.05" stroke-opacity="0.25098" stroke-linejoin="round" stroke-linecap="round" stroke="#000000" fill="none" d="m3.7,-6.8l0.1,2.45l-1.65,-0.5l-0.2,-1.9l1.75,-0.05z"/>
    <path id="svg_13" fill-rule="evenodd" fill="#f6f2d9" d="m0.1,-6.5l1.05,-0.15q2.7,0.35 3.45,2.65l-0.1,2l0.2,1.05q-0.5,2.8 -1.1,3.4l-0.95,0.55l-1.75,-0.95q-0.8,-1.4 -0.35,-1.9q0.35,-1.55 1.5,-2.6l-1.45,-1.6q-0.6,-0.8 -0.5,-2.45"/>
    <path id="svg_14" fill-rule="evenodd" fill="#bca46d" d="m0.05,-6.45l0.05,-0.05q-0.1,1.65 0.5,2.45l1.45,1.6q-1.15,1.05 -1.5,2.6q-0.45,0.5 0.35,1.9l1.75,0.95q-1.45,0.3 -4.05,-1.75l-0.6,-4.95q-0.2,-2 2.05,-2.75"/>
    <path id="svg_15" stroke-width="0.05" stroke-opacity="0.30196" stroke-linejoin="round" stroke-linecap="round" stroke="#000000" fill="none" d="m0.1,-6.5l1.05,-0.15q2.7,0.35 3.45,2.65l-0.1,2l0.2,1.05q-0.5,2.8 -1.1,3.4l-0.95,0.55q-1.45,0.3 -4.05,-1.75l-0.6,-4.95q-0.2,-2 2.05,-2.75"/>
    <path id="svg_16" fill-rule="evenodd" fill="#545035" d="m4.1,-2.8l0.15,-0.05q0.3,0.05 0.35,0.9q0,0.6 -0.55,1.05q-0.5,-0.05 -0.45,-0.45l0.05,-0.35l0.45,-1.1"/>
    <path id="svg_17" fill-rule="evenodd" fill="#f6f2d9" d="m3.75,-1.25q0,-0.4 0.5,-0.95l0.2,0.55l-0.7,0.4"/>
    <path id="svg_18" fill-rule="evenodd" fill="#545035" d="m-2.8,-4.2q-0.15,-1.85 1,-1.85l1.4,0.55l-1.15,2q-0.5,0.1 -1.25,-0.7"/>
    <path id="svg_19" stroke-width="0.05" stroke-opacity="0.25098" stroke-linejoin="round" stroke-linecap="round" stroke="#000000" fill="none" d="m-2.8,-4.2q-0.15,-1.85 1,-1.85l1.4,0.55l-1.15,2q-0.5,0.1 -1.25,-0.7z"/>
    <path id="svg_20" fill-rule="evenodd" fill="#545035" d="m1.1,-1.9q0.95,0.05 1.5,0.7q0.45,0.85 -1.05,1.1q-1.45,0.15 -1.5,-0.7q0,-1.3 1.05,-1.1"/>
    <path id="svg_21" fill-rule="evenodd" fill="#f6f2d9" d="m2.5,-0.75l-1.45,0.05q-0.05,-0.4 0.4,-0.7q1.1,0.2 1.05,0.65"/>
    <path id="svg_22" stroke-width="0.05" stroke-opacity="0.25098" stroke-linejoin="round" stroke-linecap="round" stroke="#000000" fill="none" d="m3.3,1.8l0.75,-0.4"/>
    <path id="svg_23" fill-rule="evenodd" fill="#000000" d="m3.9,0.5l-0.65,-0.7l1.05,-0.45l-0.4,1.15"/>
   </g>
  </defs>
  <g stroke="null" id="svg_24">
   <g stroke="null" id="svg_8" transform="matrix(38.75824817705612,0,0,38.75824817705612,-11723265.827000609,-8792341.479336748) ">
    <use stroke="null" x="179980.59877" y="-10730.64944" id="svg_9" xlink:href="#svg_6" width="7.5" transform="matrix(1.6757,0.0903,-0.08170000000000001,1.5161000000000004,2.0089,226866.36317500003) " height="10.4"/>
   </g>
  </g>
 </g>
</svg>