<svg width="335" height="600" xmlns="http://www.w3.org/2000/svg" xmlns:xlink="http://www.w3.org/1999/xlink">
 <!-- Created with Method Draw - http://github.com/duopixel/Method-Draw/ -->

 <g>
  <title>background</title>
  <g display="none" overflow="visible" y="0" x="0" height="100%" width="100%" id="canvasGrid">
   <rect fill="url(#gridpattern)" stroke-width="0" y="0" x="0" height="100%" width="100%"/>
  </g>
 </g>
 <g>
  <title>Layer 1</title>
  <defs>
   <g transform="matrix(1,0,0,1,-2,-0.2) " id="svg_4">
    <path id="svg_8" fill-rule="evenodd" fill="#febf74" d="m7.75,4.15l-1.5,-0.05l1.5,0.05m-4.3,2.55l-0.15,-0.8l-0.4,-1.75q-0.3,-3.6 2.9,-3.85q3.9,-0.6 4.35,3.45l0,0.2q0.45,1.65 0,2.2l-0.15,0.35l0,0.45q-0.6,0.4 -1.4,0.6l-1.25,0.1l-0.35,-0.05l-0.35,0l-3.2,-0.85l0,-0.05m5.05,-0.25l1.5,0.05l-1.5,-0.05m-1.6,0.1l-1.5,-0.05l1.5,0.05m2.45,-2.5q0.45,-0.3 0.8,-0.3q-0.35,0 -0.8,0.3"/>
    <path id="svg_9" fill-rule="evenodd" fill="#ffce8c" d="m3.3,5.9l0.15,0.8l0,0.05l0.3,2.2l-0.3,-2.2l3.2,0.85l0.35,0l0.35,0.05l1.25,-0.1l0.25,1.15l-0.25,-1.15q0.8,-0.2 1.4,-0.6l0.3,1.1l-0.15,0q-0.55,0.05 -0.9,0.3l-0.4,0.35l-0.05,0.15l-0.1,-0.1l-1,-0.4q-0.65,-0.15 -1.15,0q-0.45,0.1 -0.5,0.45q-0.1,0.3 0.2,0.55l-0.05,0.05l-0.05,0l-0.15,-0.5l0.05,-0.1l-0.05,0.1l0.15,0.5l-1.5,0.35q-0.65,0.3 -0.65,0.7l-0.15,-0.95l-0.1,-0.55l-0.65,-0.3l-0.15,-0.45q-0.3,-0.85 -0.95,-1.35q0.5,-0.65 1.3,-0.95m0.75,4.75l0.65,0.5l0.15,0.05l-0.05,0.05l-0.1,0l-0.05,-0.05l-0.05,0.15l-0.05,0.1l-0.05,0.05l-0.1,0.05l-0.25,-0.7l-0.1,-0.2m3.65,0.65l-0.15,-0.05l1,-0.55l0.45,-0.25l0.6,0.75l-0.05,0l-0.55,-0.65l-0.45,0.25q-0.45,0.2 -0.85,0.5q0.4,-0.3 0.85,-0.5l0.45,-0.25l0.55,0.65l-1.85,0.1m-3.05,-0.1l-0.5,-0.35l0.5,0.35"/>
    <path id="svg_10" fill-rule="evenodd" fill="#ffffff" d="m6.15,9.4l0.05,0l0.05,-0.05q-0.3,-0.25 -0.2,-0.55q0.05,-0.35 0.5,-0.45q0.5,-0.15 1.15,0l1,0.4l0.1,0.1l0.05,-0.15l0.4,-0.35q0.35,-0.25 0.9,-0.3l0.15,0l0.7,0.1q0.3,0.15 0.25,0.5l-0.05,0.1l-0.3,0.35l0.1,0.05l-0.1,0.05q0.65,0.15 1,0.5l0.25,0.6l-0.25,-0.6q-0.35,-0.35 -1,-0.5l0.1,-0.05q0.55,0.1 0.9,0.45q0.35,0.35 0.25,0.7l-0.75,0.55l-0.2,0.05l0.05,0.05l-0.05,0.05l0.3,0.45l0.1,0.4l-0.1,-0.4l-0.3,-0.45l0.05,-0.05l0.25,0.4l0.1,0.5l-0.1,0.3l-0.25,0.2l-0.05,0.1l-0.45,0l-0.95,-0.9l-0.2,-0.25l-0.05,-0.1l0.05,0.1l0.2,0.25l0.95,0.9l0.45,0l-0.35,0.8l-0.45,0.8l0.05,0l-0.05,0.05l0.1,0.1q0.45,0.25 0.4,0.9l-0.05,0.15l0.05,-0.15q0.05,-0.65 -0.4,-0.9l-0.1,-0.1l0.05,-0.05l0.1,0.05q0.4,0.25 0.35,0.9l-0.05,0.25l-0.5,0.9q-0.5,0.55 -1.15,0.8l0,0.05l0,0.05l0.05,0.75l-0.05,-0.75l0,-0.05l0.05,0.7l0,0.1l-0.5,0.65l-0.8,0.2q-0.45,-0.1 -0.65,-0.5q-0.25,-0.35 -0.2,-0.75l0,-0.05l-0.05,0.1l-1.15,0.7l-1.05,-0.05q-0.3,-0.15 -0.3,-0.5l0.05,-0.2q0.05,-0.5 0.5,-0.9l-0.05,-0.05l0.05,0.05q-0.45,0.4 -0.5,0.9l-0.05,0.2l0.05,-0.25q0.05,-0.5 0.45,-0.9l0.05,-0.05l-0.05,-0.05q-0.85,-0.1 -1.25,-0.6l-0.25,-0.7l0.05,-0.5q0.25,-0.7 1,-1.05l0.15,-0.1l-0.15,-0.5l-0.05,-0.1q-0.5,0 -0.6,-0.3l0,-0.25q0.05,-0.25 0.4,-0.55l0.15,-0.1l0.35,-0.3l-0.05,-0.05l0.05,0.05l-0.35,0.3l-0.15,0.1q-0.35,0.3 -0.4,0.55l0.4,-0.6l0.05,-0.1l0.1,-0.05l0.05,-0.05l0.05,-0.1l0.05,-0.15l0.05,0.05l0.1,0l0.05,-0.05l-0.15,-0.05l-0.65,-0.5l-0.05,-0.2q0.05,-0.35 0.65,-0.6q0.6,-0.35 1.55,-0.35l0.05,-0.05l-0.1,-0.05l0.1,0.05l-0.05,0.05q-0.95,0 -1.55,0.35q-0.6,0.25 -0.65,0.6q0,-0.4 0.65,-0.7l1.5,-0.35m1.55,1.9l-0.15,0.05l-1.1,0.75q-0.9,0.7 -1.65,0.8l-0.2,0l0.2,0q0.75,-0.1 1.65,-0.8l1.1,-0.75l0.15,-0.05l1.85,-0.1l0.05,0l-0.6,-0.75l-0.45,0.25l-1,0.55l0.15,0.05m-1.65,-2.5l0.5,-0.4q0.5,-0.15 1.15,0q0.6,0.1 1,0.45l0.1,0.1q0.05,-0.3 0.45,-0.55l0.9,-0.25l0.8,0.1l0.25,0.5l-0.25,-0.5l-0.8,-0.1l-0.9,0.25q-0.4,0.25 -0.45,0.55l-0.1,-0.1q-0.4,-0.35 -1,-0.45q-0.65,-0.15 -1.15,0l-0.5,0.4m-2.5,6.25l0.05,-0.4q0.25,-0.7 0.95,-1.05l0.2,-0.15l0,-0.05l0,0.05l-0.2,0.15q-0.7,0.35 -0.95,1.05l-0.05,0.4"/>
    <path id="svg_11" stroke-width="0.05" stroke-linejoin="round" stroke-linecap="round" stroke="#ffffff" fill="none" d="m6.25,4.1l1.5,0.05m2.4,-0.4l0.5,0.35m-0.5,-0.35q-0.35,0 -0.8,0.3"/>
    <path id="svg_12" stroke-width="0.05" stroke-opacity="0.50196" stroke-linejoin="round" stroke-linecap="round" stroke="#1c1c1c" fill="none" d="m3.45,6.7l-0.15,-0.8l-0.4,-1.75q-0.3,-3.6 2.9,-3.85q3.9,-0.6 4.35,3.45m-8.15,3.1q0.65,0.5 0.95,1.35l0.15,0.45l0.65,0.3l-0.3,-2.2m0.55,3.7l-0.15,-0.95l-0.1,-0.55m2.3,-0.15l-0.05,0.1l0.15,0.5l0.1,0.05l-0.05,0.05q-0.95,0 -1.55,0.35q-0.6,0.25 -0.65,0.6l0.05,0.2m5.95,-3.7l0,-0.45l0.15,-0.35q0.45,-0.55 0,-2.2l0,-0.2m-5.35,7.5l0.05,0.05l-0.35,0.3l-0.15,0.1q-0.35,0.3 -0.4,0.55l0,0.3q0.1,0.3 0.6,0.35l0.05,0l0.2,0q0.75,-0.1 1.65,-0.8l1.1,-0.75l0.15,-0.05q0.4,-0.3 0.85,-0.5l0.45,-0.25l0.55,0.65l0.05,0.1l0.2,0.25l0.95,0.9l0.45,0l0.05,0l0.25,-0.2l0.1,-0.4l-0.1,-0.4l-0.3,-0.45l0.05,-0.05l0.15,0q0.55,-0.2 0.7,-0.55l0.05,-0.1l-0.25,-0.6q-0.35,-0.35 -1,-0.5l0.1,-0.05l0.2,-0.4l-0.25,-0.5l-0.8,-0.1l-0.9,0.25q-0.4,0.25 -0.45,0.55l-0.1,-0.1q-0.4,-0.35 -1,-0.45q-0.65,-0.15 -1.15,0l-0.5,0.4m-2.05,1.65l0,0.1l0.15,0.3l-0.1,-0.2m0.6,0.55l0.05,0.05l0.1,0m-0.05,2.15l0,0.05l-0.2,0.15q-0.7,0.35 -0.95,1.05l-0.05,0.4q-0.05,0.4 0.25,0.8q0.4,0.5 1.25,0.6l0.05,0.05q-0.45,0.4 -0.5,0.9l-0.05,0.2q-0.05,0.4 0.25,0.6l1.05,0.05q0.65,-0.2 1.2,-0.7l0.05,-0.15q-0.05,0.45 0.2,0.85q0.2,0.35 0.65,0.45l0.8,-0.15l0.5,-0.75l-0.05,-0.75l0,-0.05q0.65,-0.25 1.15,-0.8l0.5,-0.95l0.05,-0.15q0.05,-0.65 -0.4,-0.9l-0.1,-0.1l0.05,-0.05l0.4,-0.7l0.4,-0.9m-7.1,-1.6l0.5,0.35m-0.25,0.35l-0.25,-0.7m0.4,2.05l0.2,0.5m5.25,-6.45l0.3,1.1"/>
    <path id="svg_13" stroke-width="0.05" stroke-linejoin="round" stroke-linecap="round" stroke="#a26933" fill="none" d="m8.85,8.7l-0.25,-1.15m1.4,-1.05l-1.5,-0.05m-3.1,0.05l1.5,0.05"/>
    <path id="svg_14" stroke-width="0.05" stroke-opacity="0.50196" stroke-linejoin="round" stroke-linecap="round" stroke="#1c1c1c" fill="none" d="m3.3,5.9q-0.8,0.3 -1.3,0.95"/>
   </g>
  </defs>
  <g stroke="null" id="svg_15">
   <g stroke="null" id="svg_6" transform="matrix(32.171631723874235,0,0,32.171631723874235,-9731436.23944665,-7298156.507716543) ">
    <use stroke="null" x="302483.11002" y="226850.53393" id="svg_7" xlink:href="#svg_4" width="10.15" transform="matrix(1,0,0,1,2,0.2) " height="18.55"/>
   </g>
  </g>
 </g>
</svg>