<svg width="626" height="600" xmlns="http://www.w3.org/2000/svg" xmlns:xlink="http://www.w3.org/1999/xlink">
 <!-- Created with Method Draw - http://github.com/duopixel/Method-Draw/ -->

 <g>
  <title>background</title>
  <g display="none" overflow="visible" y="0" x="0" height="100%" width="100%" id="canvasGrid">
   <rect fill="url(#gridpattern)" stroke-width="0" y="0" x="0" height="100%" width="100%"/>
  </g>
 </g>
 <g>
  <title>Layer 1</title>
  <defs>
   <g transform="matrix(1,0,0,1,-1.35,-0.65) " id="svg_4">
    <path id="svg_8" fill-rule="evenodd" fill="#d2bc99" d="m12.3,5.9l0.4,0.65q-3.25,0.25 -6.75,1.75l-0.05,0l0.05,-0.05q1,-1.25 2.6,-1.95q2.15,-1.05 3.75,-0.4m-8.55,2.35l-0.45,3.9l-0.5,-1.4l-0.1,-0.3q-0.5,-1.65 -0.4,-2.25l1.45,0.05"/>
    <path id="svg_9" fill-rule="evenodd" fill="#ab783a" d="m10.9,4.7l-0.3,-0.2l1.35,0.15l1.2,0.35l3.9,1.3q-1.2,1.2 -4.2,1.85l-0.25,0.05l2,1.45l-0.8,0.35l-0.8,0.1l-0.1,0l-2.55,-0.5l-2.5,-1.4l-0.2,-0.45l-0.25,0.4q-0.4,0.75 -0.2,1.2l-0.05,0l0,0.05l-0.4,1.4l-0.05,0.1l-0.05,-0.1q-0.85,-1.05 -0.7,-2.5q3.5,-1.5 6.75,-1.75l-0.4,-0.65l-1.4,-1.2m-2.25,-0.45q-0.9,0.15 -2,0.7q-0.4,0.15 -0.7,0.4q-0.75,-1.25 -2.8,-2.8q1.05,0.05 2.45,1.2l0.1,0.1l0.4,-0.7l2.5,-2.5l-0.1,3.35l0.15,0.25"/>
    <path id="svg_10" fill-rule="evenodd" fill="#e7dcc7" d="m10.6,4.5l0.3,0.2l1.4,1.2q-1.6,-0.65 -3.75,0.4q-1.6,0.7 -2.6,1.95l-0.05,0.05l-0.9,1.5l1.5,0.95l-1.55,-0.4l0.05,2.3q-0.3,1.55 0.55,2.5q-0.85,-0.95 -0.55,-2.5l1.1,0.55l1.4,0.35q1.7,0.15 3.45,-0.9l-1.8,-1.8l-2.4,-0.05l0.4,-1.4l0,-0.05l0.05,0l-0.05,0.05l0.05,-0.05q1.5,0.8 3.1,0.85l2.6,-0.05l0,0.2l-0.45,2.15l-0.55,1.15l-0.05,0.05l-0.45,0.55q-1.2,1.35 -3.2,1.45l-2.65,-0.55q-1.4,-0.9 -1.85,-2l-0.1,-0.3l-0.3,-0.7l0.45,-3.9l0.05,0q0.3,-1.7 2.15,-2.9q0.3,-0.25 0.7,-0.4q1.1,-0.55 2,-0.7l0.55,-0.05l0.05,0l1.35,0.3m1.25,9.2l-0.9,-1.05l0.9,1.05"/>
    <path id="svg_11" fill-rule="evenodd" fill="#cc9944" d="m13.15,5l-1.2,-0.35l-1.35,-0.15l-1.35,-0.3q0.7,-0.85 2,-1l3.4,-0.1l-1.5,1.9m-3.95,-0.8l-0.55,0.05l-0.15,-0.25l0.1,-3.35q0.75,1.2 0.6,3.35l0,0.2"/>
    <path id="svg_12" fill-rule="evenodd" fill="#956433" d="m5.95,8.3q-0.15,1.45 0.7,2.5l0.05,0.1l-0.2,-0.15l-1.5,-0.95l0.9,-1.5l0.05,0m1.25,1.05q-0.2,-0.45 0.2,-1.2l0.25,-0.4l0.2,0.45l2.5,1.4l2.55,0.5l0.1,0l0.8,-0.1l-0.8,0.15l-0.1,0l-2.6,0.05q-1.6,-0.05 -3.1,-0.85m-1.25,-4q-1.85,1.2 -2.15,2.9l-0.05,0l-1.45,-0.05l-0.95,-0.1q0.25,-1.1 1.55,-2.15q0.45,-0.5 1.1,-0.65l-0.85,-2.75q2.05,1.55 2.8,2.8"/>
    <path id="svg_13" fill-rule="evenodd" fill="#debd84" d="m6.7,10.9l0.05,-0.1l2.4,0.05l1.8,1.8q-1.75,1.05 -3.45,0.9l-1.4,-0.35l-1.1,-0.55l-0.05,-2.3l1.55,0.4l0.2,0.15m6.2,-0.75l0.1,0l-0.1,0.2l0,-0.2"/>
    <path id="svg_14" stroke-width="0.05" stroke-linejoin="round" stroke-linecap="round" stroke="#70593f" fill="none" d="m10.6,4.5l0.3,0.2m-0.3,-0.2l-1.35,-0.3l-0.05,0l-0.55,0.05q-0.9,0.15 -2,0.7q-0.4,0.15 -0.7,0.4q-1.85,1.2 -2.15,2.9m1.2,1.55l0.9,-1.5"/>
    <path id="svg_15" stroke-width="0.05" stroke-opacity="0.50196" stroke-linejoin="round" stroke-linecap="round" stroke="#212121" fill="none" d="m6.7,10.9l0.05,-0.1l0.4,-1.4l0.05,-0.05q1.5,0.8 3.1,0.85l2.6,-0.05l0.1,0l0.8,-0.15l0.8,-0.35l-2,-1.45l0.25,-0.05q3,-0.65 4.2,-1.85l-3.9,-1.3m-9.35,3.25l-0.05,0m-0.45,3.9l0.3,0.7l0.1,0.3q0.45,1.1 1.85,2m0.95,-4.4l-1.5,-0.95m3.6,-9.15q0.75,1.2 0.6,3.35l0,0.2m-6.05,-1.65q1.05,0.05 2.45,1.2l0.1,0.1l0.4,-0.7l2.5,-2.5m-2.1,10.1l0.2,0.15m5.15,2.8l-0.45,0.55q-1.2,1.35 -3.2,1.45l-2.65,-0.55m3.7,-10.95q0.7,-0.85 2,-1l3.4,-0.1l-1.5,1.9m-10.85,3.2l1.45,0.05m-1.45,-0.05l-0.95,-0.1q0.25,-1.1 1.55,-2.15q0.45,-0.5 1.1,-0.65l-0.85,-2.75m0.15,9.6l-0.5,-1.4l-0.1,-0.3q-0.5,-1.65 -0.4,-2.25"/>
    <path id="svg_16" stroke-width="0.05" stroke-linejoin="round" stroke-linecap="round" stroke="#70593f" fill="none" d="m12.7,6.55q-3.25,0.25 -6.75,1.75m-0.05,0l0.05,0"/>
    <path id="svg_17" stroke-width="0.05" stroke-opacity="0.50196" stroke-linejoin="round" stroke-linecap="round" stroke="#212121" fill="none" d="m7.15,9.4l0,-0.05l0.05,0m4.65,4.35l0.05,-0.05l0.55,-1.15l0.45,-2.15l0,-0.2"/>
    <path id="svg_18" stroke-width="0.05" stroke-opacity="0.30196" stroke-linejoin="round" stroke-linecap="round" stroke="#212121" fill="none" d="m5.55,15.15q-0.85,-0.95 -0.55,-2.5l-0.05,-2.3m4.2,0.5l1.8,1.8l0.9,1.05"/>
    <path id="svg_19" stroke-width="0.05" stroke-linejoin="round" stroke-linecap="round" stroke="#70593f" fill="none" d="m7,12.5l1.7,-0.05"/>
   </g>
  </defs>
  <g stroke="null" id="svg_20">
   <g stroke="null" id="svg_6" transform="matrix(39.38803276585941,0,0,39.38803276585941,-11914390.557790887,-8935266.95323896) ">
    <use stroke="null" x="302486.29765" y="226851.74692" id="svg_7" xlink:href="#svg_4" width="15.7" transform="matrix(1,0,0,1,1.35,0.65) " height="15.05"/>
   </g>
  </g>
 </g>
</svg>