<svg width="416" height="600" xmlns="http://www.w3.org/2000/svg" xmlns:xlink="http://www.w3.org/1999/xlink">
 <!-- Created with Method Draw - http://github.com/duopixel/Method-Draw/ -->

 <g>
  <title>background</title>
  <g display="none" overflow="visible" y="0" x="0" height="100%" width="100%" id="canvasGrid">
   <rect fill="url(#gridpattern)" stroke-width="0" y="0" x="0" height="100%" width="100%"/>
  </g>
 </g>
 <g>
  <title>Layer 1</title>
  <defs>
   <g transform="matrix(1,0,0,1,1.35,2.05) " id="svg_23">
    <use id="svg_32" xlink:href="#svg_22" width="2.75" transform="matrix(1,0,0,1,-1.35,-2.05) " height="4.1"/>
   </g>
   <g transform="matrix(1,0,0,1,1.35,2.05) " id="svg_22">
    <path id="svg_33" fill-rule="evenodd" fill="#f7f0e3" d="m0.35,-1.95l0.05,-0.1q1.5,2 0.7,4l-0.95,0.1l-0.45,-0.15l-0.65,-0.4q-0.55,-0.25 -0.3,-0.85l0.35,-0.75l1,-1.45l0.25,-0.4"/>
   </g>
   <g transform="matrix(1,0,0,1,-8.85,-0.1) " id="svg_21">
    <path id="svg_34" stroke-width="0.05" stroke-opacity="0.50196" stroke-linejoin="round" stroke-linecap="round" stroke="#212121" fill="none" d="m8.85,3.6l0.45,-1l1.35,-1.85l0.35,-0.65q1.95,2.65 0.95,5.2"/>
    <path id="svg_35" fill-rule="evenodd" fill-opacity="0.30196" fill="#45392e" d="m10.15,5.2l-0.85,-0.6q-0.7,-0.3 -0.35,-1.1l0.45,-0.95l1.3,-1.85l0.3,-0.5q0.55,2.95 -0.85,5"/>
   </g>
   <g transform="matrix(1,0,0,1,4.1,4.95) " id="svg_20">
    <use id="svg_36" xlink:href="#svg_19" width="8.25" transform="matrix(1,0,0,1,-4.1,-4.95) " height="9.85"/>
   </g>
   <g transform="matrix(1,0,0,1,4.1,4.95) " id="svg_19">
    <path id="svg_37" fill-rule="evenodd" fill="#f7f0e3" d="m-1.5,-4.7l3.2,-0.1q1.45,0.75 2.2,2.05q0.4,2.3 0.1,2.65q-0.7,1 -0.6,2.2q0.1,1.15 -0.5,2.05q-0.7,0.85 -2.9,0.75l-1.4,-0.1q-1,-0.6 -2,-1.9q-1.3,-2.65 -0.25,-6.3q0.8,-0.9 2.15,-1.3"/>
   </g>
   <g transform="matrix(1,0,0,1,-2.1,-2.8) " id="svg_18">
    <path id="svg_38" stroke-width="0.05" stroke-opacity="0.50196" stroke-linejoin="round" stroke-linecap="round" stroke="#212121" fill="none" d="m12.7,9.3q-0.9,1.25 -0.75,2.8q0.1,1.5 -0.65,2.65q-0.95,1.15 -3.8,0.95l-1.85,-0.2q-1.3,-0.8 -2.6,-2.5q-1.7,-3.5 -0.3,-8.2q1.05,-1.2 2.8,-1.65l4.15,-0.1q1.9,1.05 2.9,2.8q0.5,2.95 0.1,3.45z"/>
    <path id="svg_39" fill-rule="evenodd" fill="#785825" d="m10.65,12.75l-0.8,-1.2l1.6,-0.2l-0.8,1.4"/>
    <path id="svg_40" fill-rule="evenodd" fill="#d62929" d="m8.85,10.65q-2.05,0.35 -2.55,-1.1l3,0.55l-0.45,0.55"/>
    <path id="svg_41" fill-rule="evenodd" fill="#d62929" d="m10.9,10.45q1.4,-0.05 1.75,-1.55l-2.05,1.1q0,0.35 0.3,0.45"/>
    <path id="svg_42" fill-rule="evenodd" fill-opacity="0.30196" fill="#45392e" d="m6.5,10.9q-0.95,3.2 1,4.8l-1.85,-0.2q-1.3,-0.8 -2.6,-2.5q-1.7,-3.5 -0.3,-8.2q1.05,-1.2 2.8,-1.65q-1.3,1.05 -1.25,1.65q0.05,0.85 2.6,1.8l0.35,1.8l-0.75,2.5"/>
   </g>
   <g transform="matrix(1,0,0,1,1.5,2.1) " id="svg_17">
    <use id="svg_43" xlink:href="#svg_16" width="3" transform="matrix(1,0,0,1,-1.5,-2.1) " height="4.2"/>
   </g>
   <g transform="matrix(1,0,0,1,1.5,2.1) " id="svg_16">
    <path id="svg_44" fill-rule="evenodd" fill="#f7f0e3" d="m-1.05,-2.1q2.5,1.5 2.55,3.05l-0.95,1.1q-1.25,0.2 -1.55,-0.5q-0.6,-0.4 -0.45,-1.6l0.4,-2.05"/>
   </g>
   <g transform="matrix(1,0,0,1,-2.65,-0.8) " id="svg_15">
    <path id="svg_45" stroke-width="0.05" stroke-opacity="0.50196" stroke-linejoin="round" stroke-linecap="round" stroke="#212121" fill="none" d="m3.25,5.55q-0.75,-0.5 -0.55,-2.05l0.5,-2.7q3.25,2 3.3,4.05"/>
    <path id="svg_46" fill-rule="evenodd" fill-opacity="0.30196" fill="#45392e" d="m5.3,6.25q-1.65,0.25 -2.05,-0.7q-0.75,-0.5 -0.55,-2.05l0.5,-2.7q2.35,3 2.1,5.45"/>
   </g>
  </defs>
  <g stroke="null" id="svg_47">
   <g stroke="null" id="svg_28" transform="matrix(37.85364951880254,0,0,37.85364951880254,-11450110.676900862,-8587131.879649853) ">
    <use stroke="null" x="232178.10625" y="-4432.16911" xlink:href="#svg_23" width="2.75" transform="matrix(1.3027999999999997,0.024799999999999996,0,1.3027999999999997,8.7912,226867.161325) " id="svg_26" height="4.1"/>
    <use stroke="null" x="302481.63682" y="226850.80274" id="svg_29" xlink:href="#svg_21" width="3.45" transform="matrix(1,0,0,1,8.85,0.1) " height="5.2"/>
    <use stroke="null" x="232178.10625" y="-4432.16911" xlink:href="#svg_20" width="8.25" transform="matrix(1.3027999999999997,0.024799999999999996,0,1.3027999999999997,2.1584,226869.814925) " id="svg_25" height="9.85"/>
    <use stroke="null" x="302481.63682" y="226850.80274" id="svg_30" xlink:href="#svg_18" width="10.8" transform="matrix(1,0,0,1,2.1,2.8) " height="12.95"/>
    <use stroke="null" x="232178.10625" y="-4432.16911" xlink:href="#svg_17" width="3" transform="matrix(1.3027999999999997,0.024799999999999996,0,1.3027999999999997,2.6458,226867.892425) " id="svg_24" height="4.2"/>
    <use stroke="null" x="302481.63682" y="226850.80274" id="svg_31" xlink:href="#svg_15" width="3.85" transform="matrix(1,0,0,1,2.65,0.8) " height="5.5"/>
   </g>
  </g>
 </g>
</svg>