<svg width="654" height="600" xmlns="http://www.w3.org/2000/svg" xmlns:xlink="http://www.w3.org/1999/xlink">
 <!-- Created with Method Draw - http://github.com/duopixel/Method-Draw/ -->

 <g>
  <title>background</title>
  <g display="none" overflow="visible" y="0" x="0" height="100%" width="100%" id="canvasGrid">
   <rect fill="url(#gridpattern)" stroke-width="0" y="0" x="0" height="100%" width="100%"/>
  </g>
 </g>
 <g>
  <title>Layer 1</title>
  <defs>
   <g transform="matrix(1,0,0,1,3.5,3.95) " id="svg_21">
    <use id="svg_29" xlink:href="#svg_20" width="7" transform="matrix(1,0,0,1,-3.5,-3.95) " height="7.85"/>
   </g>
   <g transform="matrix(1,0,0,1,3.5,3.95) " id="svg_20">
    <path id="svg_30" fill-rule="evenodd" fill="#ffce8c" d="m2.85,-0.35l0.25,1.1q-0.4,1.8 -1.6,2.9l-1.15,0.25l-1.9,-0.75l-1.95,-1.4q-0.05,-0.35 1.9,-4.15l1.55,-0.95l3.3,-0.6l0.25,2.05q-0.25,1.15 -0.65,1.55"/>
   </g>
   <g transform="matrix(1,0,0,1,6.4,6.15) " id="svg_19">
    <use id="svg_31" xlink:href="#svg_18" width="12.8" transform="matrix(1,0,0,1,-6.4,-6.15) " height="12.3"/>
   </g>
   <g transform="matrix(1,0,0,1,6.4,6.15) " id="svg_18">
    <path id="svg_32" fill-rule="evenodd" fill="#9e6124" d="m2.65,-4.35l0,0.05l0,-0.05l0.05,0l1,0.45l1,0.65l0.1,0.1q1.5,1.85 1.6,3.2q-1.4,-1.9 -3,-2.3l-0.2,0.45l0.75,0.95q0.3,1.75 -0.5,2.9q-0.2,-2.3 -2.4,-2.55l-0.3,0.3q-1.05,1.15 -2.8,2.1l-0.3,0.55l-0.25,0.6l0,0.05l-0.35,1.2l-0.45,0q-0.15,0.75 0.35,1.85q-0.9,-0.6 -1.45,-2l0,-0.35l-0.3,-0.25q-0.9,0.3 -1.45,1.55q-0.15,-1 0.6,-2.35l0.15,-0.15l-0.2,-0.3q-1.2,-2.15 -0.35,-4.5l2.1,-2.45l0.9,-0.9l0.3,-0.2q1.35,-0.75 3.25,0l2.15,1.4m-0.85,2.8l-0.05,0.05l0.05,-0.05"/>
   </g>
   <g transform="matrix(1,0,0,1,-3.15,-3.15) " id="svg_17">
    <path id="svg_33" fill-rule="evenodd" fill="#9e6124" d="m7.15,12.45l-0.05,-0.05l0.05,0l0,0.05"/>
    <path id="svg_34" stroke-width="0.05" stroke-opacity="0.50196" stroke-linejoin="round" stroke-linecap="round" stroke="#1f1e1d" fill="none" d="m12,4.75q-0.8,-0.8 -2.2,-1.3l-3.25,0.15l-0.3,0.2q-0.5,0.4 -0.85,0.95q-0.75,0.7 -2,2.55q-0.7,2.4 0.6,4.5l0.05,0.45q-0.65,1.35 -0.5,2.35m3.55,-2.2l0.25,-0.65l0.25,-0.55q1.7,-1.05 2.7,-2.25l0.3,-0.3q2.2,0.15 2.55,2.45m1.05,-5.3q1.6,1.8 1.8,3.15q-1.5,-1.85 -3.15,-2.15m-6.45,6.85l0.45,0l0.3,-1.2l-0.05,-0.05m-2.15,0.6l0.3,0.2m0.05,0.35q0.6,1.4 1.55,1.95"/>
   </g>
   <g transform="matrix(1,0,0,1,2,1.35) " id="svg_16">
    <use id="svg_35" xlink:href="#svg_15" width="3.95" transform="matrix(1,0,0,1,-2,-1.35) " height="2.65"/>
   </g>
   <g transform="matrix(1,0,0,1,2,1.35) " id="svg_15">
    <path id="svg_36" fill-rule="evenodd" fill="#ffce8c" d="m0.8,-0.95l0.8,0.5l0.2,0.1q0.4,1.65 -0.2,1.65l-1.15,-0.25l-0.95,-0.55q-1.5,-1.35 -1.5,-1.65l2.8,0.2"/>
   </g>
   <g transform="matrix(1,0,0,1,-2.4,-3.1) " id="svg_14">
    <path id="svg_37" stroke-width="0.05" stroke-opacity="0.30196" stroke-linejoin="round" stroke-linecap="round" stroke="#1f1e1d" fill="none" d="m6,11.15l-0.8,-0.5l-2.8,-0.05q0,0.3 1.55,1.6l1,0.5l1.15,0.2"/>
    <path id="svg_38" fill-rule="evenodd" fill-opacity="0.30196" fill="#4f2f12" d="m12,4.75l0.05,-0.05q0.55,0.05 2.15,1.1q1.6,1.8 1.75,3.15q-1.5,-1.85 -3.1,-2.15l0.05,-0.25l0,-0.15l-1.1,-0.95l-0.15,-0.05l0.05,0.3l-1.25,0.7q-2.2,3.25 -4.25,3.15l-0.05,0q-0.2,-0.75 0.95,-3.45l0.8,-1.4q-1.65,0.75 -3.2,1.45l0.7,-1.4q0.35,-0.6 0.85,-0.95l0.3,-0.2l3.25,-0.2q1.4,0.55 2.2,1.35"/>
    <path id="svg_39" stroke-width="0.05" stroke-opacity="0.50196" stroke-linejoin="round" stroke-linecap="round" stroke="#1f1e1d" fill="none" d="m8.15,14.2l1.95,0.65l1.15,-0.3q1.15,-1.15 1.45,-3l0,-0.35"/>
    <path id="svg_40" stroke-width="0.05" stroke-linejoin="round" stroke-linecap="round" stroke="#46312d" fill="none" d="m9.55,11.35l0.75,-0.15"/>
    <path id="svg_41" stroke-width="0.05" stroke-linejoin="round" stroke-linecap="round" stroke="#2e2001" fill="none" d="m11.8,10.75l0.4,-0.2"/>
   </g>
  </defs>
  <g stroke="null" id="svg_42">
   <g stroke="null" id="svg_26" transform="matrix(47.40953268293359,0,0,47.40953268293359,-14340716.819956863,-10754982.46513768) ">
    <use stroke="null" x="291136.66987" y="241365.93243" xlink:href="#svg_21" width="7" transform="matrix(0.9986,-0.0487,0.0487,0.9986,5.8622,7.1759) " id="svg_24" height="7.85"/>
    <use stroke="null" x="291136.66987" y="241365.93243" xlink:href="#svg_19" width="12.8" transform="matrix(0.9986,-0.0487,0.0487,0.9986,2.909,3.3703) " id="svg_23" height="12.3"/>
    <use stroke="null" x="302483.59944" y="226849.6643" id="svg_27" xlink:href="#svg_17" width="12.85" transform="matrix(1,0,0,1,3.15,3.15) " height="12.35"/>
    <use stroke="null" x="291136.66987" y="241365.93243" xlink:href="#svg_16" width="3.95" transform="matrix(0.9986,-0.0487,0.0487,0.9986,2.3869,10.3993) " id="svg_22" height="2.65"/>
    <use stroke="null" x="302483.59944" y="226849.6643" id="svg_28" xlink:href="#svg_14" width="13.55" transform="matrix(1,0,0,1,2.4,3.1) " height="11.75"/>
   </g>
  </g>
 </g>
</svg>