<svg width="377" height="600" xmlns="http://www.w3.org/2000/svg" xmlns:xlink="http://www.w3.org/1999/xlink">
 <!-- Created with Method Draw - http://github.com/duopixel/Method-Draw/ -->

 <g>
  <title>background</title>
  <g display="none" overflow="visible" y="0" x="0" height="100%" width="100%" id="canvasGrid">
   <rect fill="url(#gridpattern)" stroke-width="0" y="0" x="0" height="100%" width="100%"/>
  </g>
 </g>
 <g>
  <title>Layer 1</title>
  <defs>
   <g transform="matrix(1,0,0,1,-1.8,0.15) " id="svg_11">
    <path id="svg_17" fill-rule="evenodd" fill="#fe7e00" d="m5,1.45l0.05,0l1.05,-1.6l3.6,3.2q0.6,0.4 1.35,1.85q0.8,1.4 0.65,2.75l-0.05,0l-0.35,0.9l1.55,0.7l0.55,1.75l-1.95,0.05l-0.2,0.2l-1.15,0.45l-1.95,0.05q-0.75,-0.05 -0.85,1.45l0.1,1.15l-0.45,1.65l-0.25,1.05l0,0.05l-0.05,-0.15q-0.25,-0.3 -0.55,-1.35l-0.2,-1q-0.2,-0.15 -0.65,0.6l-0.1,-0.1q-1.35,-0.75 -2.2,-2.2q-0.8,-1.3 -1.15,-5.2q0.7,-3.4 1.1,-3.85l0,-0.05q0.2,1.45 0.55,1.5l0.05,-0.05l1.5,-3.8"/>
    <path id="svg_18" fill-rule="evenodd" fill="#f8f3df" d="m7.95,13.25l-0.15,0.25l0.2,-0.3l-0.05,0.05"/>
   </g>
   <g transform="matrix(1,0,0,1,2.6,3.2) " id="svg_10">
    <use id="svg_19" xlink:href="#svg_9" width="7" transform="matrix(1,0,0,1,-2.6,-3.2) " height="6.35"/>
   </g>
   <g transform="matrix(1,0,0,1,2.6,3.2) " id="svg_9">
    <path id="svg_20" fill-rule="evenodd" fill="#f4dfb5" d="m3.05,-1.55l1.35,3.85q-0.55,1.45 -2.65,0.45q-3.65,-1.75 -4.35,-2.05l0.85,-3.9l4.8,1.65"/>
   </g>
   <g transform="matrix(1,0,0,1,-1.75,0.15) " id="svg_8">
    <path id="svg_21" fill-rule="evenodd" fill-opacity="0.30196" fill="#825428" d="m6.55,14.75l2.8,1.15l0.7,2.4q-0.25,0.8 -1.35,0q-1.25,-1.05 -2.2,-3.35l0.05,-0.2"/>
    <path id="svg_22" fill-rule="evenodd" fill="#f4dfb5" d="m11.5,10.75l-0.1,0.85l-0.6,1.45q0.35,0.55 0.3,1l0,0.1l-0.15,0.4l-0.4,0.95l0.05,-0.15l-0.05,0.05l0,0.1l-0.05,0.05l0.05,-0.05l-0.05,0.1l0,-0.05l0,0.3l-0.2,1.1l-0.4,0.55q-1,0.2 -2,-0.45l-0.85,-0.7q-0.7,-1.75 -0.6,-4.35l0.95,-0.3l0.8,-0.35q0.95,-0.55 1.55,-0.65l0.8,-0.05l0.95,0.1m-0.55,3.8l-0.3,0.7l-0.05,0.1l0.05,-0.1l0.3,-0.7"/>
    <path id="svg_23" stroke-width="0.05" stroke-opacity="0.50196" stroke-linejoin="round" stroke-linecap="round" stroke="#1b1b1b" fill="none" d="m11.5,10.75l-0.95,-0.1l-0.8,0.05q-0.6,0.1 -1.55,0.65l-0.8,0.35l-0.95,0.3m0.6,4.35l0.85,0.7q1,0.65 2,0.45l0.4,-0.55l0.2,-1.1l0,-0.3l0.05,-0.05l0,-0.1l0.05,-0.05l0.05,-0.1l0.3,-0.7l0.15,-0.4l0,-0.1q0.05,-0.45 -0.3,-1"/>
    <path id="svg_24" stroke-width="0.05" stroke-opacity="0.30196" stroke-linejoin="round" stroke-linecap="round" stroke="#1b1b1b" fill="none" d="m6.45,12q-0.1,2.6 0.6,4.35"/>
    <path id="svg_25" fill-rule="evenodd" fill="#ffffff" d="m8.05,12.8q0.65,-0.3 1,0.2l0.05,0.75l-1,0.05l-0.05,-1m2.55,-0.2q0.2,-0.75 0.6,-1.1l0.1,1q-0.25,0.8 -0.65,0.9l-0.05,-0.8"/>
    <path id="svg_26" stroke-width="0.05" stroke-opacity="0.50196" stroke-linejoin="round" stroke-linecap="round" stroke="#1f1f1f" fill="none" d="m9.05,13q-0.35,-0.5 -1,-0.2"/>
    <path id="svg_27" stroke-width="0.05" stroke-opacity="0.50196" stroke-linejoin="round" stroke-linecap="round" stroke="#1f1f1f" fill="none" d="m10.6,12.6q0.2,-0.75 0.6,-1.1"/>
    <path id="svg_28" fill-rule="evenodd" fill="#ffffff" d="m11.65,7.65l0.05,0l-0.3,0.85l-0.05,0l0.3,-0.85"/>
    <path id="svg_29" fill-rule="evenodd" fill="#d5c1a4" d="m2.9,3.8l0,-0.1l0,0.1"/>
    <path id="svg_30" stroke-width="0.05" stroke-opacity="0.6" stroke-linejoin="round" stroke-linecap="round" stroke="#1f1f1f" fill="none" d="m11.65,7.65l0.05,0q0.15,-1.35 -0.6,-2.8q-0.8,-1.4 -1.4,-1.75l-3.6,-3.25l-1.1,1.6l-1.5,3.85l-0.05,0q-0.35,-0.1 -0.55,-1.5q-0.4,0.5 -1.1,3.9q0.35,3.95 1.2,5.25q0.8,1.45 2.15,2.15m6.55,-7.45l-0.3,0.85l-0.05,0l0,0.05l1.5,0.7l0.6,1.8l-2,-0.05l-0.2,0.25m-8.35,-7.45l0,-0.1l0,0.1m3.2,11.85q0.3,1.05 0.55,1.35l0.05,0.15l0,-0.05l0.25,-1.1"/>
    <path id="svg_31" fill-rule="evenodd" fill-opacity="0.30196" fill="#fcb14e" d="m9.7,6.15l-0.6,-1.45l-3.05,-4.85l3.6,3.25q0.6,0.35 1.4,1.8q0.75,1.4 0.6,2.75l-0.05,0.05l-1.9,-1.55"/>
    <path id="svg_32" fill-rule="evenodd" fill="#c96200" d="m2.85,3.8q0.2,1.45 0.55,1.5l0.1,0l1.45,-3.85l0.05,3.95l-0.9,3.9l2.4,2.55l0.4,3.7l0,0.45l-0.2,1.1l-0.1,-0.1l-0.55,-1.35l-0.2,-1.05q-0.2,-0.15 -0.6,0.65l-0.1,-0.1l-0.05,-0.05q-1.35,-0.7 -2.15,-2.15q-0.85,-1.3 -1.2,-5.25q0.7,-3.4 1.1,-3.85l0,-0.05"/>
    <path id="svg_33" fill-rule="evenodd" fill="#f4dfb5" d="m5.95,13.25l0.4,1.5l-1.3,-0.1q-0.2,-1.1 0.1,-1.9q0.4,-0.35 0.8,0.5"/>
    <path id="svg_34" stroke-width="0.05" stroke-opacity="0.30196" stroke-linejoin="round" stroke-linecap="round" stroke="#1f1f1f" fill="none" d="m6.35,14.75l-1.3,-0.1q-0.2,-1.1 0.1,-1.9q0.4,-0.35 0.8,0.5"/>
   </g>
  </defs>
  <g stroke="null" id="svg_35">
   <g stroke="null" id="svg_14" transform="matrix(31.586344205358547,0,0,31.586344205358547,-9554255.671390083,-7165253.14035898) ">
    <use stroke="null" x="302478.91069" y="226846.75199" id="svg_15" xlink:href="#svg_11" width="11.6" transform="matrix(1,0,0,1,1.8,-0.15) " height="17.25"/>
    <use stroke="null" x="523092.88002" y="339137.4595" xlink:href="#svg_10" width="7" transform="matrix(0.5883,0.0352,-0.0155,0.6146,5.9699,14.5917) " id="svg_12" height="6.35"/>
    <use stroke="null" x="302478.91069" y="226846.75199" id="svg_16" xlink:href="#svg_8" width="11.7" transform="matrix(1,0,0,1,1.75,-0.15) " height="18.85"/>
   </g>
  </g>
 </g>
</svg>