<svg width="583" height="600" xmlns="http://www.w3.org/2000/svg" xmlns:xlink="http://www.w3.org/1999/xlink">
 <!-- Created with Method Draw - http://github.com/duopixel/Method-Draw/ -->

 <g>
  <title>background</title>
  <g display="none" overflow="visible" y="0" x="0" height="100%" width="100%" id="canvasGrid">
   <rect fill="url(#gridpattern)" stroke-width="0" y="0" x="0" height="100%" width="100%"/>
  </g>
 </g>
 <g>
  <title>Layer 1</title>
  <defs>
   <g transform="matrix(1,0,0,1,-0.95,-0.75) " id="svg_4">
    <path id="svg_8" fill-rule="evenodd" fill="#ff910b" d="m4.45,2.8l0.7,-0.7l-2.05,-0.25q0.4,-0.3 0.85,-0.45l0.75,-0.3l1.9,-0.35q0.85,0 1.4,0.35q1.2,-0.25 2.3,0l3.2,2.1q1.1,0.2 1.95,1.1l0.2,0.25l0.25,0.4q0.4,0.7 0.45,1.75q0,1.35 -0.65,3.4l0,-0.1q-0.05,-2.8 -1.6,-3.2l-0.2,0l-2.15,-0.45l0,0.05l-0.5,0.5l-0.25,0.3l-0.5,0.6l-0.1,0.05l-0.25,0.3l-0.45,0.55l-1.05,1.1l-0.35,0.3l-0.3,0.2l0.65,2.45l0.1,1.35l0,0.35l-0.2,0.75l-0.25,0.5q-0.4,0.6 -1.1,0.9q-0.1,-1.9 -0.55,-3.45l-0.05,-0.4l-0.15,0.2l-0.2,0.35l-0.9,1.35q-0.55,0.95 -1.45,0.95q0.8,0 1.45,-0.95l0.9,-1.35l-0.9,1.35q-0.65,0.95 -1.45,0.95q-1.2,-0.05 -2.85,-1.65l1.1,-1.2l0.75,-1.45l-0.1,-0.2l-0.55,-1.1q-1.05,-2.8 0.7,-5.2l0.75,-0.95l0.75,-1.05m4.2,7l1.05,-1.1l0.45,-0.55l-0.45,0.55l-1.05,1.1m-3.8,-1.65q3.7,0.8 5.55,-0.3q-1.85,1.1 -5.55,0.3m1.75,-7.4q0.85,0 1.4,0.45l2.3,-0.1l-2.3,0.1q-0.55,-0.45 -1.4,-0.45m9.1,9.25q0.65,-1.95 0.6,-3.3q0,-1.05 -0.4,-1.75q0.4,0.7 0.4,1.75q0.05,1.35 -0.6,3.3"/>
    <path id="svg_9" fill-rule="evenodd" fill="#febf74" d="m14.1,6.8l0.05,0.45q-0.2,1.45 -0.7,1.95l0.05,0.15l0.4,1.3q-0.25,3 -1.2,4.1q0.6,-1.75 -0.8,-4.05q0.05,-2 -0.9,-3.5l0.25,-0.3l-0.25,0.3l0.25,-0.3l0.5,-0.5l0,-0.05l2.15,0.45l0.2,0m-0.6,2.55l-0.55,0.3l0.55,-0.3"/>
    <path id="svg_10" fill-rule="evenodd" fill="#ffce8c" d="m12.7,14.75q-0.3,0.3 -1.6,0.45l-2.35,-0.75l0,-0.35l-0.1,-1.35l-0.65,-2.45l0.3,-0.2l0.35,-0.3l1.05,-1.1l0.45,-0.55l0.35,-0.35l0.5,-0.6l-0.5,0.6l-0.35,0.35l0.25,-0.3l0.1,-0.05l0.5,-0.6q0.95,1.5 0.9,3.5q1.4,2.3 0.8,4.05m-6.05,-1.6l-0.2,-0.2l0.15,-0.2l0.05,0.4m3.75,-5.3l0.1,-0.05l-0.1,0.05m0.7,2.25l-0.95,0.15l0.95,-0.15"/>
    <path id="svg_11" stroke-width="0.05" stroke-opacity="0.50196" stroke-linejoin="round" stroke-linecap="round" stroke="#1f1e1d" fill="none" d="m4.45,2.8l0.7,-0.7m-2.05,-0.25q0.4,-0.3 0.85,-0.45l0.75,-0.3l1.9,-0.35m3.7,0.35l3.2,2.1m1.95,1.1l0.2,0.25l0.25,0.4q0.4,0.7 0.4,1.75q0.05,1.35 -0.6,3.3m-7.15,5.2l-0.25,0.5q-0.4,0.6 -1.1,0.9m-0.75,-3.65l-0.2,0.35m-2.35,2.3q-1.25,0 -2.95,-1.65m2.65,-10.1l0.85,-1.05m3.55,7.5l0.65,2.45l0.1,1.35m1.75,-6.3l-0.1,0.05q-1.85,1.1 -5.55,0.3m5.45,-7.05l-2.3,0.1q-0.55,-0.45 -1.4,-0.45m-2.7,14.85q0.8,0 1.45,-0.95l0.9,-1.35"/>
    <path id="svg_12" stroke-width="0.05" stroke-opacity="0.50196" stroke-linejoin="round" stroke-linecap="round" stroke="#1f1e1d" fill="none" d="m0.95,13.95l1.2,-1.2l0.75,-1.45l-0.1,-0.2l-0.55,-1.1q-1.05,-2.8 0.7,-5.2l0.65,-0.95m8.15,2.55l-0.5,0.5l-0.25,0.3l-0.5,0.6l-0.35,0.35l-0.45,0.55l-1.05,1.1l-0.35,0.3l-0.3,0.2"/>
    <path id="svg_13" stroke-width="0.05" stroke-opacity="0.30196" stroke-linejoin="round" stroke-linecap="round" stroke="#1f1e1d" fill="none" d="m14.1,6.8l0.05,0.45q-0.2,1.45 -0.7,1.95l0.05,0.15l0.4,1.3q-0.25,3 -1.2,4.1q-0.3,0.3 -1.6,0.45l-2.35,-0.75"/>
    <path id="svg_14" stroke-width="0.05" stroke-linejoin="round" stroke-linecap="round" stroke="#52351b" fill="none" d="m12.95,9.65l0.55,-0.3m-3.35,0.9l0.95,-0.15"/>
    <path id="svg_15" fill-rule="evenodd" fill-opacity="0.15294" fill="#422107" d="m8.3,4.75q-0.4,0.65 -0.4,1.35q-0.2,1.65 -3.05,2.1q1.8,-0.75 3.45,-3.45m-3.1,-2.65q-0.75,-0.45 -2.1,-0.25q3.3,-1.75 4.9,-0.65q3.1,-0.7 5.5,2.05q1.05,0.2 1.95,1.05l0.2,0.25q0.6,0.75 0.7,2.15q-1.15,-1.2 -3.1,-1.7l-1.9,-0.4l-0.1,-0.65l-1,-1l-0.4,-0.45q-4.45,-0.15 -5.65,4.25l-0.55,-2.9l1.55,-1.75"/>
   </g>
  </defs>
  <g stroke="null" id="svg_16">
   <g stroke="null" id="svg_6" transform="matrix(37.53159319552123,0,0,37.53159319552123,-11352656.64495138,-8513980.868764093) ">
    <use stroke="null" x="302481.7942" y="226847.71602" id="svg_7" xlink:href="#svg_4" width="15.4" transform="matrix(1,0,0,1,0.95,0.75) " height="15.85"/>
   </g>
  </g>
 </g>
</svg>