<?xml version="1.0" encoding="UTF-8" standalone="no"?>
<svg xmlns:xlink="http://www.w3.org/1999/xlink" height="78.5px" width="78.5px" xmlns="http://www.w3.org/2000/svg">
  <g transform="matrix(5.0, 0.0, 0.0, 5.0, 0.0, 0.0)">
    <use height="15.7" transform="matrix(1.0, 0.0, 0.0, 1.0, 0.0, 0.0)" width="15.7" xlink:href="#shape0"/>
  </g>
  <defs>
    <g id="shape0" transform="matrix(1.0, 0.0, 0.0, 1.0, 0.0, 0.0)">
      <path d="M15.0 15.15 L15.0 0.65 0.5 0.65 0.5 15.15 15.0 15.15 M0.0 0.0 L15.7 0.0 15.7 15.7 0.0 15.7 0.0 0.0" fill="#009933" fill-rule="evenodd" stroke="none"/>
      <path d="M15.0 15.15 L0.5 15.15 0.5 0.65 15.0 0.65 15.0 15.15 M1.1 1.3 L1.1 14.55 14.35 14.55 14.35 1.3 1.1 1.3" fill="#006633" fill-rule="evenodd" stroke="none"/>
      <path d="M1.1 1.3 L14.35 1.3 14.35 14.55 1.1 14.55 1.1 1.3" fill="#e3e3e3" fill-rule="evenodd" stroke="none"/>
      <path d="M7.55 14.65 Q7.3 14.65 7.2 14.5 L7.15 14.55 7.4 13.7 7.45 13.55 7.9 10.65 8.35 11.05 8.0 10.5 7.75 10.1 7.3 9.7 Q5.7 8.05 4.55 8.25 4.8 4.35 7.9 2.6 6.7 3.7 6.15 6.0 L6.7 5.3 6.8 5.25 7.65 7.4 9.9 7.35 Q8.35 8.0 8.4 8.85 L8.3 9.95 Q8.05 10.1 8.95 11.15 9.8 12.15 9.35 12.05 L8.7 11.7 Q9.05 12.2 8.8 13.1 L8.5 13.75 7.6 13.55 7.6 13.75 8.3 14.05 8.25 14.05 8.05 14.3 7.55 14.65 M7.3 9.7 Q7.75 8.55 9.0 7.55 7.7 7.65 6.8 8.75 L7.3 9.7" fill="#009933" fill-rule="evenodd" stroke="none"/>
      <path d="M6.8 5.25 L6.75 5.2 Q8.0 3.6 9.2 3.25 10.6 2.8 12.3 4.3 11.7 5.0 11.45 6.15 L11.3 7.15 11.05 9.55 10.3 12.8 10.15 12.55 Q9.25 13.05 8.7 14.0 L8.1 14.65 7.55 14.65 8.05 14.3 8.25 14.05 8.3 14.05 8.35 14.05 8.7 13.75 8.5 13.75 8.8 13.1 Q9.05 12.2 8.7 11.7 L9.35 12.05 Q9.8 12.15 8.95 11.15 8.05 10.1 8.3 9.95 L8.4 8.85 Q8.35 8.0 9.9 7.35 L7.65 7.4 6.8 5.25 M11.3 7.15 Q11.2 6.1 11.45 6.15 10.1 5.2 8.8 5.5 10.4 5.9 11.05 6.75 L11.3 7.15" fill="#006633" fill-rule="evenodd" stroke="none"/>
      <path d="M8.5 13.75 L8.7 13.75 8.35 14.05 8.3 14.05 7.6 13.75 7.6 13.55 8.5 13.75 M11.3 7.15 L11.05 6.75 Q10.4 5.9 8.8 5.5 10.1 5.2 11.45 6.15 11.2 6.1 11.3 7.15 M7.3 9.7 L6.8 8.75 Q7.7 7.65 9.0 7.55 7.75 8.55 7.3 9.7" fill="#e3e3e3" fill-rule="evenodd" stroke="none"/>
    </g>
  </defs>
</svg>
