<?xml version="1.0" encoding="UTF-8" standalone="no"?>
<svg xmlns:xlink="http://www.w3.org/1999/xlink" height="77.0px" width="77.0px" xmlns="http://www.w3.org/2000/svg">
  <g transform="matrix(5.0, 0.0, 0.0, 5.0, 1.25, 1.25)">
    <use height="15.4" transform="matrix(1.0, 0.0, 0.0, 1.0, -0.25, -0.25)" width="15.4" xlink:href="#shape0"/>
  </g>
  <defs>
    <g id="shape0" transform="matrix(1.0, 0.0, 0.0, 1.0, 0.25, 0.25)">
      <path d="M6.0 13.45 Q4.3 13.1 3.0 11.8 2.1 10.9 1.65 9.85 L1.25 8.4 1.25 8.3 1.15 7.4 1.15 7.15 Q1.25 6.1 1.85 4.5 2.25 3.7 3.0 3.0 4.4 1.6 6.25 1.2 L8.55 1.1 Q10.7 1.75 11.95 3.0 12.85 3.85 13.35 4.95 L13.8 7.4 13.75 8.0 13.65 8.95 Q13.3 10.15 12.55 11.2 L12.4 11.35 11.95 11.8 Q10.1 13.6 7.5 13.6 L6.9 13.6 6.95 13.55 7.55 12.9 Q8.1 11.95 9.0 11.45 L9.15 11.7 9.9 8.45 10.15 6.05 9.9 5.65 Q9.25 4.8 7.65 4.4 8.95 4.1 10.3 5.05 10.55 3.9 11.15 3.2 9.45 1.7 8.05 2.15 6.85 2.5 5.6 4.1 L5.5 4.2 5.55 4.2 5.0 4.9 Q5.55 2.6 6.75 1.5 3.65 3.25 3.4 7.15 4.55 6.95 6.15 8.6 L6.6 9.0 6.85 9.4 6.75 9.55 6.3 12.45 6.25 12.6 6.0 13.45 M7.35 12.65 L7.55 12.65 7.2 12.95 7.15 12.95 6.45 12.65 6.45 12.45 7.35 12.65 M10.3 5.05 Q10.05 5.0 10.15 6.05 L10.3 5.05 M6.15 8.6 L5.65 7.65 Q6.55 6.55 7.85 6.45 6.6 7.45 6.15 8.6" fill="#e3e3e3" fill-rule="evenodd" stroke="none"/>
      <path d="M6.75 9.55 L6.85 9.4 7.2 9.95 6.75 9.55" fill="#cecece" fill-rule="evenodd" stroke="none"/>
      <path d="M5.6 4.1 L5.65 4.15 5.55 4.2 5.5 4.2 5.6 4.1 M5.6 14.65 L5.6 14.7 5.55 14.65 5.6 14.65" fill="#858585" fill-rule="evenodd" stroke="none"/>
      <path d="M5.65 4.15 L6.5 6.3 8.75 6.25 Q7.2 6.9 7.25 7.75 L7.15 8.85 Q6.9 9.0 7.8 10.05 8.65 11.05 8.2 10.95 7.8 10.85 7.55 10.6 7.9 11.1 7.65 12.0 L7.35 12.65 6.45 12.45 6.45 12.65 7.15 12.95 7.1 12.95 6.9 13.2 6.4 13.55 6.05 13.4 6.0 13.45 6.25 12.6 6.3 12.45 6.75 9.55 7.2 9.95 6.85 9.4 6.6 9.0 6.15 8.6 Q4.55 6.95 3.4 7.15 3.65 3.25 6.75 1.5 5.55 2.6 5.0 4.9 L5.55 4.2 5.65 4.15 M6.15 8.6 Q6.6 7.45 7.85 6.45 6.55 6.55 5.65 7.65 L6.15 8.6" fill="#009933" fill-rule="evenodd" stroke="none"/>
      <path d="M5.6 4.1 Q6.85 2.5 8.05 2.15 9.45 1.7 11.15 3.2 10.55 3.9 10.3 5.05 8.95 4.1 7.65 4.4 9.25 4.8 9.9 5.65 L10.15 6.05 9.9 8.45 9.15 11.7 9.0 11.45 Q8.1 11.95 7.55 12.9 L6.95 13.55 6.9 13.6 7.5 13.6 Q10.1 13.6 11.95 11.8 L12.4 11.35 12.55 11.2 Q13.3 10.15 13.65 8.95 L13.75 8.0 13.8 7.4 13.35 4.95 Q12.85 3.85 11.95 3.0 10.7 1.75 8.55 1.1 L6.25 1.2 Q4.4 1.6 3.0 3.0 2.25 3.7 1.85 4.5 1.25 6.1 1.15 7.15 L1.15 7.4 1.25 8.3 1.25 8.4 1.65 9.85 Q2.1 10.9 3.0 11.8 4.3 13.1 6.0 13.45 L6.05 13.4 6.4 13.55 6.9 13.2 7.1 12.95 7.15 12.95 7.2 12.95 7.55 12.65 7.35 12.65 7.65 12.0 Q7.9 11.1 7.55 10.6 7.8 10.85 8.2 10.95 8.65 11.05 7.8 10.05 6.9 9.0 7.15 8.85 L7.25 7.75 Q7.2 6.9 8.75 6.25 L6.5 6.3 5.65 4.15 5.6 4.1 M10.3 5.05 L10.15 6.05 Q10.05 5.0 10.3 5.05 M5.55 14.65 Q3.65 14.15 2.2 12.7 1.2 11.7 0.65 10.5 0.2 9.55 0.1 8.5 L0.0 7.45 0.0 7.35 Q0.05 4.3 2.2 2.2 4.4 0.0 7.45 0.0 10.55 0.0 12.75 2.2 14.9 4.35 14.9 7.45 L14.9 7.9 Q14.75 10.65 12.75 12.7 10.55 14.85 7.45 14.9 L5.6 14.65 5.55 14.65" fill="#006633" fill-rule="evenodd" stroke="none"/>
      <path d="M5.55 14.65 Q3.65 14.15 2.2 12.7 1.2 11.7 0.65 10.5 0.2 9.55 0.1 8.5 L0.0 7.45 0.0 7.35 Q0.05 4.3 2.2 2.2 4.4 0.0 7.45 0.0 10.55 0.0 12.75 2.2 14.9 4.35 14.9 7.45 L14.9 7.9 Q14.75 10.65 12.75 12.7 10.55 14.85 7.45 14.9 L5.6 14.65" fill="none" stroke="#009900" stroke-linecap="butt" stroke-linejoin="miter" stroke-miterlimit="3.0" stroke-width="0.5"/>
      <path d="M5.6 14.7 L5.55 14.65 Z" fill="none" stroke="#009900" stroke-linecap="butt" stroke-linejoin="miter" stroke-miterlimit="3.0" stroke-width="0.5"/>
    </g>
  </defs>
</svg>
