<?xml version="1.0" encoding="UTF-8" standalone="no"?>
<svg xmlns:xlink="http://www.w3.org/1999/xlink" height="77.0px" width="77.0px" xmlns="http://www.w3.org/2000/svg">
  <g transform="matrix(5.0, 0.0, 0.0, 5.0, 1.25, 1.25)">
    <use height="15.4" transform="matrix(1.0, 0.0, 0.0, 1.0, -0.25, -0.25)" width="15.4" xlink:href="#shape0"/>
  </g>
  <defs>
    <g id="shape0" transform="matrix(1.0, 0.0, 0.0, 1.0, 0.25, 0.25)">
      <path d="M1.1 7.75 L1.1 8.15 Q1.4 10.05 2.4 11.0 L3.9 12.4 Q4.3 12.85 4.4 11.95 L4.6 10.1 8.75 11.05 10.9 11.4 10.5 11.05 10.55 11.0 11.4 10.2 Q12.0 9.6 11.5 9.0 12.6 8.4 13.05 8.25 L13.5 7.95 13.7 7.75 13.8 7.8 13.8 7.4 Q13.75 4.8 11.9 3.0 10.65 1.75 8.5 1.1 L6.2 1.25 Q4.35 1.6 2.95 3.0 1.1 4.8 1.1 7.4 L1.1 7.65 1.1 7.75 M14.9 7.45 Q14.85 10.55 12.7 12.75 10.5 14.9 7.45 14.9 4.35 14.9 2.15 12.75 -0.05 10.55 0.0 7.45 -0.05 4.35 2.15 2.2 4.35 0.0 7.45 0.0 10.5 0.0 12.7 2.2 14.85 4.35 14.9 7.45" fill="#724701" fill-rule="evenodd" stroke="none"/>
      <path d="M1.1 7.75 L1.1 7.65 1.1 7.4 Q1.1 4.8 2.95 3.0 4.35 1.6 6.2 1.25 L8.5 1.1 Q10.65 1.75 11.9 3.0 13.75 4.8 13.8 7.4 L13.8 7.8 13.7 7.75 11.25 7.3 9.95 7.95 8.2 8.25 10.35 9.9 5.0 7.35 4.7 7.15 3.95 7.2 3.75 7.9 2.9 8.0 1.1 7.75" fill="#e3e3e3" fill-rule="evenodd" stroke="none"/>
      <path d="M13.7 7.75 L13.5 7.95 13.05 8.25 Q12.6 8.4 11.5 9.0 12.0 9.6 11.4 10.2 L10.55 11.0 10.5 11.05 10.9 11.4 8.75 11.05 4.6 10.1 4.4 11.95 Q4.3 12.85 3.9 12.4 L2.4 11.0 Q1.4 10.05 1.1 8.15 L1.1 7.75 2.9 8.0 3.75 7.9 3.95 7.2 4.7 7.15 5.0 7.35 10.35 9.9 8.2 8.25 9.95 7.95 11.25 7.3 13.7 7.75" fill="#ab5703" fill-rule="evenodd" stroke="none"/>
      <path d="M14.9 7.45 Q14.85 10.55 12.7 12.75 10.5 14.9 7.45 14.9 4.35 14.9 2.15 12.75 -0.05 10.55 0.0 7.45 -0.05 4.35 2.15 2.2 4.35 0.0 7.45 0.0 10.5 0.0 12.7 2.2 14.85 4.35 14.9 7.45 Z" fill="none" stroke="#d36c05" stroke-linecap="butt" stroke-linejoin="miter" stroke-miterlimit="3.0" stroke-width="0.5"/>
    </g>
  </defs>
</svg>
