<?xml version="1.0" encoding="UTF-8" standalone="no"?>
<svg xmlns:xlink="http://www.w3.org/1999/xlink" height="78.5px" width="78.5px" xmlns="http://www.w3.org/2000/svg">
  <g transform="matrix(5.0, 0.0, 0.0, 5.0, 0.0, 0.0)">
    <use height="15.7" transform="matrix(1.0, 0.0, 0.0, 1.0, 0.0, 0.0)" width="15.7" xlink:href="#shape0"/>
  </g>
  <defs>
    <g id="shape0" transform="matrix(1.0, 0.0, 0.0, 1.0, 0.0, 0.0)">
      <path d="M15.7 0.0 L15.7 15.7 0.0 15.7 0.0 0.0 15.7 0.0 M15.0 0.65 L0.5 0.65 0.5 15.15 15.0 15.15 15.0 0.65" fill="#d36c05" fill-rule="evenodd" stroke="none"/>
      <path d="M14.15 8.55 L14.35 8.6 14.35 1.3 1.1 1.3 1.1 8.2 1.1 14.55 1.85 14.55 1.85 12.75 3.1 11.45 8.35 12.25 7.65 11.55 11.85 12.5 11.3 12.15 13.35 11.2 13.35 9.8 14.15 8.55 M15.0 0.65 L15.0 15.15 0.5 15.15 0.5 0.65 15.0 0.65" fill="#724701" fill-rule="evenodd" stroke="none"/>
      <path d="M14.15 8.55 L12.95 8.15 11.25 9.45 9.55 9.15 10.75 10.6 5.9 8.2 4.1 8.2 4.4 9.25 1.1 8.2 1.1 1.3 14.35 1.3 14.35 8.6 14.15 8.55" fill="#e3e3e3" fill-rule="evenodd" stroke="none"/>
      <path d="M1.1 8.2 L4.4 9.25 4.1 8.2 5.9 8.2 10.75 10.6 9.55 9.15 11.25 9.45 12.95 8.15 14.15 8.55 13.35 9.8 13.35 11.2 11.3 12.15 11.85 12.5 7.65 11.55 8.35 12.25 3.1 11.45 1.85 12.75 1.85 14.55 1.1 14.55 1.1 8.2" fill="#ab5703" fill-rule="evenodd" stroke="none"/>
    </g>
  </defs>
</svg>
