<?xml version="1.0" encoding="UTF-8" standalone="no"?>
<svg xmlns:xlink="http://www.w3.org/1999/xlink" height="78.5px" width="78.5px" xmlns="http://www.w3.org/2000/svg">
  <g transform="matrix(5.0, 0.0, 0.0, 5.0, 0.0, 0.0)">
    <use height="15.7" transform="matrix(1.0, 0.0, 0.0, 1.0, 0.0, 0.0)" width="15.7" xlink:href="#shape0"/>
  </g>
  <defs>
    <g id="shape0" transform="matrix(1.0, 0.0, 0.0, 1.0, 0.0, 0.0)">
      <path d="M15.0 0.65 L0.5 0.65 0.5 15.15 15.0 15.15 15.0 0.65 M0.0 0.0 L15.7 0.0 15.7 15.7 0.0 15.7 0.0 0.0" fill="#fe8181" fill-rule="evenodd" stroke="none"/>
      <path d="M14.35 1.3 L1.1 1.3 1.1 14.55 14.35 14.55 14.35 1.3 M15.0 0.65 L15.0 15.15 0.5 15.15 0.5 0.65 15.0 0.65" fill="#9b0202" fill-rule="evenodd" stroke="none"/>
      <path d="M14.35 1.3 L14.35 14.55 1.1 14.55 1.1 1.3 14.35 1.3" fill="#e3e3e3" fill-rule="evenodd" stroke="none"/>
      <path d="M6.4 14.7 Q3.6 12.8 3.3 11.35 2.9 9.7 2.85 8.7 2.8 7.7 3.1 9.35 4.05 6.05 5.7 5.55 4.7 6.9 4.8 8.9 6.2 8.3 7.55 5.9 8.2 4.3 7.15 2.8 L10.25 5.75 Q11.8 8.1 10.35 11.35 11.25 11.3 12.05 9.8 L11.95 8.2 Q12.8 9.9 12.55 11.05 11.55 13.05 10.0 14.5 9.45 14.35 9.6 13.7 L11.35 11.8 8.65 13.7 Q8.2 13.75 8.4 12.95 L8.7 11.9 Q8.8 11.65 9.2 11.65 8.85 10.05 9.1 9.25 9.35 8.5 8.7 9.6 7.4 11.3 6.4 11.8 L6.05 11.85 Q5.05 11.7 4.2 11.15 4.8 12.55 6.1 13.65 L6.4 14.0 Q6.85 14.5 6.4 14.7" fill="#ff0000" fill-rule="evenodd" stroke="none"/>
      <path d="M6.4 14.7 Q6.85 14.5 6.4 14.0 L6.1 13.65 Q4.8 12.55 4.2 11.15 5.05 11.7 6.05 11.85 L6.4 11.8 Q7.4 11.3 8.7 9.6 9.35 8.5 9.1 9.25 8.85 10.05 9.2 11.65 8.8 11.65 8.7 11.9 L8.4 12.95 Q8.2 13.75 8.65 13.7 L11.35 11.8 9.6 13.7 Q9.45 14.35 10.0 14.5 L9.8 14.65 7.15 15.15 6.4 14.7" fill="#9b0202" fill-rule="evenodd" stroke="none"/>
    </g>
  </defs>
</svg>
