<?xml version="1.0" encoding="UTF-8" standalone="no"?>
<svg xmlns:xlink="http://www.w3.org/1999/xlink" height="77.0px" width="77.0px" xmlns="http://www.w3.org/2000/svg">
  <g transform="matrix(5.0, 0.0, 0.0, 5.0, 1.25, 1.25)">
    <use height="15.4" transform="matrix(1.0, 0.0, 0.0, 1.0, -0.25, -0.25)" width="15.4" xlink:href="#shape0"/>
  </g>
  <defs>
    <g id="shape0" transform="matrix(1.0, 0.0, 0.0, 1.0, 0.25, 0.25)">
      <path d="M14.55 5.0 Q14.9 6.15 14.9 7.45 14.9 8.75 14.55 9.9 14.0 11.45 12.75 12.7 10.55 14.9 7.45 14.9 4.4 14.9 2.2 12.7 0.0 10.5 0.0 7.45 0.0 4.35 2.2 2.2 4.4 0.0 7.45 0.0 10.55 0.0 12.75 2.2 14.0 3.45 14.55 5.0 M9.9 13.15 L9.7 13.3 10.15 13.15 10.3 13.1 10.6 12.95 12.9 11.3 Q13.75 10.1 13.8 8.4 13.85 4.8 12.0 3.0 10.7 1.75 8.55 1.1 L6.3 1.3 Q4.4 1.6 3.0 3.0 1.15 4.85 1.15 7.4 1.15 9.95 3.05 11.9 4.9 13.85 7.15 13.8 L6.45 13.35 Q6.85 13.15 6.45 12.7 L6.15 12.35 Q4.9 11.3 4.35 9.95 5.15 10.5 6.1 10.65 L6.45 10.6 Q7.4 10.1 8.65 8.45 9.25 7.4 9.05 8.15 8.8 8.9 9.15 10.45 8.75 10.45 8.65 10.7 L8.35 11.7 Q8.15 12.45 8.6 12.4 L11.2 10.6 Q9.65 11.95 9.5 12.4 9.35 13.05 9.9 13.15" fill="#9b0202" fill-rule="evenodd" stroke="none"/>
      <path d="M6.45 13.35 L7.15 13.8 Q4.9 13.85 3.05 11.9 1.15 9.95 1.15 7.4 1.15 4.85 3.0 3.0 4.4 1.6 6.3 1.3 L8.55 1.1 Q10.7 1.75 12.0 3.0 13.85 4.8 13.8 8.4 13.75 10.1 12.9 11.3 L10.6 12.95 10.3 13.1 10.15 13.15 9.7 13.3 9.9 13.15 Q11.4 11.8 12.35 9.85 12.6 8.75 11.75 7.15 L11.85 8.65 Q11.1 10.1 10.25 10.15 11.6 7.05 10.15 4.8 L7.15 1.95 Q8.15 3.4 7.55 4.9 6.25 7.2 4.9 7.8 4.8 5.9 5.75 4.6 4.2 5.05 3.3 8.25 3.0 6.65 3.05 7.6 L3.45 10.15 Q3.75 11.55 6.45 13.35" fill="#e3e3e3" fill-rule="evenodd" stroke="none"/>
      <path d="M6.45 13.35 Q3.75 11.55 3.45 10.15 L3.05 7.6 Q3.0 6.65 3.3 8.25 4.2 5.05 5.75 4.6 4.8 5.9 4.9 7.8 6.25 7.2 7.55 4.9 8.15 3.4 7.15 1.95 L10.15 4.8 Q11.6 7.05 10.25 10.15 11.1 10.1 11.85 8.65 L11.75 7.15 Q12.6 8.75 12.35 9.85 11.4 11.8 9.9 13.15 9.35 13.05 9.5 12.4 9.65 11.95 11.2 10.6 L8.6 12.4 Q8.15 12.45 8.35 11.7 L8.65 10.7 Q8.75 10.45 9.15 10.45 8.8 8.9 9.05 8.15 9.25 7.4 8.65 8.45 7.4 10.1 6.45 10.6 L6.1 10.65 Q5.15 10.5 4.35 9.95 4.9 11.3 6.15 12.35 L6.45 12.7 Q6.85 13.15 6.45 13.35" fill="#ff0000" fill-rule="evenodd" stroke="none"/>
      <path d="M14.55 5.0 Q14.9 6.15 14.9 7.45 14.9 8.75 14.55 9.9 14.0 11.45 12.75 12.7 10.55 14.9 7.45 14.9 4.4 14.9 2.2 12.7 0.0 10.5 0.0 7.45 0.0 4.35 2.2 2.2 4.4 0.0 7.45 0.0 10.55 0.0 12.75 2.2 14.0 3.45 14.55 5.0 Z" fill="none" stroke="#fe8181" stroke-linecap="butt" stroke-linejoin="miter" stroke-miterlimit="3.0" stroke-width="0.5"/>
    </g>
  </defs>
</svg>
