<?xml version="1.0" encoding="UTF-8" standalone="no"?>
<svg xmlns:xlink="http://www.w3.org/1999/xlink" height="77.0px" width="77.0px" xmlns="http://www.w3.org/2000/svg">
  <g transform="matrix(5.0, 0.0, 0.0, 5.0, 1.25, 1.25)">
    <use height="15.4" transform="matrix(1.0, 0.0, 0.0, 1.0, -0.25, -0.25)" width="15.4" xlink:href="#shape0"/>
  </g>
  <defs>
    <g id="shape0" transform="matrix(1.0, 0.0, 0.0, 1.0, 0.25, 0.25)">
      <path d="M6.85 1.1 L6.8 1.15 6.65 1.15 6.8 1.1 6.85 1.1 M9.2 12.15 L9.15 12.15 9.2 12.15 9.3 12.0 9.2 12.1 9.2 12.15 M6.7 11.95 L7.7 12.25 6.2 11.7 6.7 11.95" fill="#1f8efe" fill-rule="evenodd" stroke="none"/>
      <path d="M6.85 1.1 L7.45 1.05 8.6 1.1 Q10.4 1.65 11.55 2.65 L11.8 2.85 11.95 3.0 Q13.8 4.8 13.8 7.4 13.8 9.95 11.95 11.8 L11.8 11.9 Q10.0 13.6 7.45 13.65 L7.2 13.65 Q5.9 13.55 4.8 13.05 L8.4 8.85 10.3 10.9 10.55 4.25 3.9 3.95 5.9 6.1 1.75 10.1 Q1.15 8.9 1.15 7.55 L1.15 7.4 Q1.1 4.8 3.0 3.0 L3.2 2.8 Q4.55 1.6 6.65 1.15 L6.8 1.15 6.85 1.1 M9.2 12.15 L9.2 12.1 9.3 12.0 9.2 12.15 M6.7 11.95 L6.2 11.7 7.7 12.25 6.7 11.95" fill="#e3e3e3" fill-rule="evenodd" stroke="none"/>
      <path d="M4.3 9.95 L4.35 10.0 4.3 10.0 4.3 9.95" fill="#015eba" fill-rule="evenodd" stroke="none"/>
      <path d="M10.55 4.25 L10.3 10.9 8.4 8.85 4.8 13.05 3.0 11.8 2.55 11.3 7.45 6.35 5.85 4.9 10.55 4.25 M4.3 9.95 L4.3 10.0 4.35 10.0 4.3 9.95" fill="#660066" fill-rule="evenodd" stroke="none"/>
      <path d="M4.8 13.05 Q5.9 13.55 7.2 13.65 L7.45 13.65 Q10.0 13.6 11.8 11.9 L11.95 11.8 Q13.8 9.95 13.8 7.4 13.8 4.8 11.95 3.0 L11.8 2.85 11.55 2.65 Q10.4 1.65 8.6 1.1 L7.45 1.05 6.85 1.1 6.8 1.1 6.65 1.15 Q4.55 1.6 3.2 2.8 L3.0 3.0 Q1.1 4.8 1.15 7.4 L1.15 7.55 Q1.15 8.9 1.75 10.1 L5.9 6.1 3.9 3.95 10.55 4.25 5.85 4.9 7.45 6.35 2.55 11.3 3.0 11.8 4.8 13.05 M11.8 1.4 L12.7 2.2 Q14.9 4.35 14.9 7.45 14.9 10.5 12.7 12.7 L11.8 13.45 Q9.9 14.85 7.45 14.9 4.35 14.85 2.2 12.7 0.0 10.5 0.0 7.45 0.0 4.35 2.2 2.2 L3.2 1.3 Q5.05 0.0 7.45 0.0 9.75 0.0 11.55 1.25 L11.8 1.4" fill="#880088" fill-rule="evenodd" stroke="none"/>
      <path d="M11.8 1.4 L12.7 2.2 Q14.9 4.35 14.9 7.45 14.9 10.5 12.7 12.7 L11.8 13.45 Q9.9 14.85 7.45 14.9 4.35 14.85 2.2 12.7 0.0 10.5 0.0 7.45 0.0 4.35 2.2 2.2 L3.2 1.3 Q5.05 0.0 7.45 0.0 9.75 0.0 11.55 1.25 L11.8 1.4 Z" fill="none" stroke="#660066" stroke-linecap="butt" stroke-linejoin="miter" stroke-miterlimit="3.0" stroke-width="0.5"/>
    </g>
  </defs>
</svg>
