<?xml version="1.0" encoding="UTF-8" standalone="no"?>
<svg xmlns:xlink="http://www.w3.org/1999/xlink" height="78.5px" width="78.5px" xmlns="http://www.w3.org/2000/svg">
  <g transform="matrix(5.0, 0.0, 0.0, 5.0, 0.0, 0.0)">
    <use height="15.7" transform="matrix(1.0, 0.0, 0.0, 1.0, 0.0, 0.0)" width="15.7" xlink:href="#shape0"/>
  </g>
  <defs>
    <g id="shape0" transform="matrix(1.0, 0.0, 0.0, 1.0, 0.0, 0.0)">
      <path d="M13.95 4.5 L14.35 5.3 14.35 1.3 1.1 1.3 1.1 11.35 1.95 12.3 2.75 12.7 Q4.7 14.0 8.05 11.85 10.05 9.7 10.3 6.7 11.25 3.6 13.95 4.5 M12.0 8.4 L11.45 8.6 11.25 9.15 11.45 9.65 12.0 9.9 12.5 9.65 12.75 9.15 12.5 8.6 12.0 8.4 M3.8 8.95 L3.6 8.45 3.8 7.9 Q4.05 7.7 4.35 7.7 L4.85 7.9 5.1 8.45 4.85 8.95 4.35 9.2 3.8 8.95 M0.5 0.65 L15.0 0.65 15.0 15.15 0.5 15.15 0.5 0.65" fill="#000000" fill-rule="evenodd" stroke="none"/>
      <path d="M2.75 12.7 L1.95 12.3 1.1 11.35 1.1 1.3 14.35 1.3 14.35 5.3 13.95 4.5 Q13.05 3.2 11.3 3.85 8.35 4.9 8.15 8.7 8.35 11.7 4.7 12.75 L2.75 12.7 M12.0 8.4 L12.5 8.6 12.75 9.15 12.5 9.65 12.0 9.9 11.45 9.65 11.25 9.15 11.45 8.6 12.0 8.4 M3.8 8.95 L4.35 9.2 4.85 8.95 5.1 8.45 4.85 7.9 4.35 7.7 Q4.05 7.7 3.8 7.9 L3.6 8.45 3.8 8.95" fill="#e3e3e3" fill-rule="evenodd" stroke="none"/>
      <path d="M13.95 4.5 Q11.25 3.6 10.3 6.7 10.05 9.7 8.05 11.85 4.7 14.0 2.75 12.7 L4.7 12.75 Q8.35 11.7 8.15 8.7 8.35 4.9 11.3 3.85 13.05 3.2 13.95 4.5" fill="#404040" fill-rule="evenodd" stroke="none"/>
      <path d="M0.0 0.0 L15.7 0.0 15.7 15.7 0.0 15.7 0.0 0.0 M0.5 0.65 L0.5 15.15 15.0 15.15 15.0 0.65 0.5 0.65" fill="#555555" fill-rule="evenodd" stroke="none"/>
    </g>
  </defs>
</svg>
