<?xml version="1.0" encoding="UTF-8" standalone="no"?>
<svg xmlns:xlink="http://www.w3.org/1999/xlink" height="175.75px" width="184.0px" xmlns="http://www.w3.org/2000/svg">
  <g transform="matrix(5.0, 0.0, 0.0, 5.0, 92.0, 87.75)">
    <use height="35.15" transform="matrix(1.0, 0.0, 0.0, 1.0, -18.4, -17.55)" width="36.8" xlink:href="#shape0"/>
  </g>
  <defs>
    <g id="shape0" transform="matrix(1.0, 0.0, 0.0, 1.0, 18.4, 17.55)">
      <path d="M18.4 -4.3 L9.3 4.75 11.55 17.4 0.1 11.5 -11.2 17.6 -9.15 4.9 -18.4 -4.0 -5.7 -6.0 -0.1 -17.55 5.65 -6.05 18.4 -4.3" fill="url(#gradient0)" fill-rule="evenodd" stroke="none"/>
      <path d="M18.4 -4.3 L9.3 4.75 11.55 17.4 0.1 11.5 -11.2 17.6 -9.15 4.9 -18.4 -4.0 -5.7 -6.0 -0.1 -17.55 5.65 -6.05 18.4 -4.3 Z" fill="none" stroke="#663300" stroke-linecap="butt" stroke-linejoin="miter" stroke-miterlimit="3.0" stroke-opacity="0.53333336" stroke-width="0.05"/>
    </g>
    <radialGradient cx="0" cy="0" gradientTransform="matrix(0.0301, 0.0098, -0.0098, 0.0301, -4.85, -2.75)" gradientUnits="userSpaceOnUse" id="gradient0" r="819.2" spreadMethod="pad">
      <stop offset="0.0" stop-color="#ffc960"/>
      <stop offset="0.2196078431372549" stop-color="#ffc960"/>
      <stop offset="1.0" stop-color="#ff9900"/>
    </radialGradient>
  </defs>
</svg>
