<?xml version="1.0" encoding="UTF-8" standalone="no"?>
<svg xmlns:xlink="http://www.w3.org/1999/xlink" height="88.25px" width="119.5px" xmlns="http://www.w3.org/2000/svg">
  <g transform="matrix(5.0, 0.0, 0.0, 5.0, 5.0, 0.0)">
    <use height="17.65" transform="matrix(1.0, 0.0, 0.0, 1.0, -1.0, 0.0)" width="23.9" xlink:href="#shape0"/>
  </g>
  <defs>
    <g id="shape0" transform="matrix(1.0, 0.0, 0.0, 1.0, 1.0, 0.0)">
      <path d="M5.5 10.1 L11.0 7.35 11.05 7.4 16.45 10.15 11.05 7.4 16.5 4.65 22.0 7.4 16.5 10.15 16.45 10.15 11.0 12.85 5.5 15.6 0.0 12.85 5.5 10.1 11.0 12.85 5.5 10.1" fill="#99cc00" fill-rule="evenodd" stroke="none"/>
      <path d="M21.9 8.25 L5.45 16.55 0.0 13.8" fill="none" stroke="#333300" stroke-linecap="butt" stroke-linejoin="miter" stroke-miterlimit="3.0" stroke-width="2.0"/>
      <path d="M11.05 7.4 L11.0 7.35 5.5 10.1 11.0 12.85 16.45 10.15 11.05 7.4 16.5 4.65 22.0 7.4 16.5 10.15 16.45 10.15 M5.5 10.1 L0.0 12.85 5.5 15.6 11.0 12.85" fill="none" stroke="#006600" stroke-linecap="round" stroke-linejoin="miter" stroke-miterlimit="3.0" stroke-width="0.5"/>
      <path d="M10.05 1.75 L10.05 3.15 7.1 1.6 7.1 0.15 10.05 1.75" fill="#cc0000" fill-rule="evenodd" stroke="none"/>
      <path d="M14.45 4.1 L7.0 0.15 15.1 0.0 14.45 4.1" fill="#ffffff" fill-rule="evenodd" stroke="none"/>
      <path d="M13.8 1.5 L6.8 4.85 5.25 4.0 12.25 0.65 13.8 1.5" fill="#ffffff" fill-rule="evenodd" stroke="none"/>
      <path d="M6.75 4.85 L6.75 6.25 5.15 5.45 5.15 4.0 6.75 4.85" fill="#cc0000" fill-rule="evenodd" stroke="none"/>
      <path d="M14.5 4.1 L14.5 5.5 11.55 3.95 11.55 2.5 14.5 4.1" fill="#cc0000" fill-rule="evenodd" stroke="none"/>
      <path d="M14.5 5.45 L14.5 4.05 15.15 0.05 15.15 1.45 14.5 5.45" fill="#ff0000" fill-rule="evenodd" stroke="none"/>
      <path d="M11.55 3.9 L6.75 6.25 6.75 4.85 11.55 2.5 11.55 3.9" fill="#ff0000" fill-rule="evenodd" stroke="none"/>
    </g>
  </defs>
</svg>
