<?xml version="1.0" encoding="UTF-8" standalone="no"?>
<svg xmlns:xlink="http://www.w3.org/1999/xlink" height="77.0px" width="77.0px" xmlns="http://www.w3.org/2000/svg">
  <g transform="matrix(5.0, 0.0, 0.0, 5.0, 1.25, 1.25)">
    <use height="15.4" transform="matrix(1.0, 0.0, 0.0, 1.0, -0.25, -0.25)" width="15.4" xlink:href="#shape0"/>
  </g>
  <defs>
    <g id="shape0" transform="matrix(1.0, 0.0, 0.0, 1.0, 0.25, 0.25)">
      <path d="M14.9 7.45 Q14.9 10.5 12.7 12.7 L11.8 13.45 Q9.9 14.85 7.45 14.9 4.35 14.85 2.2 12.7 0.0 10.5 0.0 7.45 0.0 4.35 2.2 2.2 L3.2 1.3 Q5.05 0.0 7.45 0.0 9.75 0.0 11.55 1.25 L11.8 1.4 12.7 2.2 Q14.9 4.35 14.9 7.45 M6.65 1.15 Q4.55 1.6 3.2 2.8 L3.0 3.0 Q1.1 4.8 1.15 7.4 1.1 9.95 3.0 11.8 4.85 13.6 7.45 13.65 10.0 13.6 11.8 11.9 L11.95 11.8 Q13.8 9.95 13.8 7.4 13.8 4.8 11.95 3.0 L11.8 2.85 11.55 2.65 Q10.35 1.65 8.5 1.1 L6.85 1.1 6.8 1.1 6.65 1.15" fill="#ff3300" fill-rule="evenodd" stroke="none"/>
      <path d="M8.5 1.1 Q10.35 1.65 11.55 2.65 L11.8 2.85 11.95 3.0 Q13.8 4.8 13.8 7.4 13.8 9.95 11.95 11.8 L11.8 11.9 Q10.0 13.6 7.45 13.65 4.85 13.6 3.0 11.8 1.1 9.95 1.15 7.4 1.1 4.8 3.0 3.0 L3.2 2.8 Q4.55 1.6 6.65 1.15 L6.8 1.15 6.9 1.25 8.5 1.1 8.55 1.15 8.5 1.1 M4.35 10.0 L4.3 9.95 4.3 10.0 4.35 10.0 M9.25 12.1 L9.15 12.15 9.2 12.1 9.25 12.1 M6.7 11.95 L6.2 11.7 7.7 12.25 6.7 11.95" fill="#e3e3e3" fill-rule="evenodd" stroke="none"/>
      <path d="M4.35 10.0 L4.3 10.0 4.3 9.95 4.35 10.0" fill="#015eba" fill-rule="evenodd" stroke="none"/>
      <path d="M9.25 12.1 L9.3 12.0 9.25 12.1 9.2 12.1 9.15 12.15 9.25 12.1 M6.7 11.95 L7.7 12.25 6.2 11.7 6.7 11.95" fill="#1f8efe" fill-rule="evenodd" stroke="none"/>
      <path d="M14.9 7.45 Q14.9 10.5 12.7 12.7 L11.8 13.45 Q9.9 14.85 7.45 14.9 4.35 14.85 2.2 12.7 0.0 10.5 0.0 7.45 0.0 4.35 2.2 2.2 L3.2 1.3 Q5.05 0.0 7.45 0.0 9.75 0.0 11.55 1.25 L11.8 1.4 12.7 2.2 Q14.9 4.35 14.9 7.45 Z" fill="none" stroke="#cc0000" stroke-linecap="butt" stroke-linejoin="miter" stroke-miterlimit="3.0" stroke-width="0.5"/>
      <path d="M7.45 11.75 Q2.1 7.7 2.9 5.4 3.55 3.15 5.05 3.2 6.35 3.35 7.5 4.95 8.5 3.35 9.8 3.2 11.3 3.15 12.0 5.4 12.75 7.7 7.45 11.75" fill="#ff1e1e" fill-rule="evenodd" stroke="none"/>
      <path d="M10.85 6.7 L10.95 5.7 10.5 4.7 Q10.15 4.25 9.7 4.25 9.35 4.3 9.15 4.7 8.95 5.15 9.05 5.7 9.15 6.3 9.55 6.7 9.9 7.15 10.25 7.15 10.65 7.15 10.85 6.7" fill="#f0a6a6" fill-rule="evenodd" stroke="none"/>
    </g>
  </defs>
</svg>
