<?xml version="1.0" encoding="UTF-8" standalone="no"?>
<svg xmlns:xlink="http://www.w3.org/1999/xlink" height="77.0px" width="77.0px" xmlns="http://www.w3.org/2000/svg">
  <g transform="matrix(5.0, 0.0, 0.0, 5.0, 1.25, 1.25)">
    <use height="15.4" transform="matrix(1.0, 0.0, 0.0, 1.0, -0.25, -0.25)" width="15.4" xlink:href="#shape0"/>
  </g>
  <defs>
    <g id="shape0" transform="matrix(1.0, 0.0, 0.0, 1.0, 0.25, 0.25)">
      <path d="M6.65 1.15 Q4.55 1.6 3.2 2.8 L3.0 3.0 Q1.1 4.8 1.15 7.4 1.1 9.95 3.0 11.8 4.85 13.6 7.45 13.65 10.0 13.6 11.8 11.9 L11.95 11.8 Q13.8 9.95 13.8 7.4 13.8 4.8 11.95 3.0 L11.8 2.85 11.55 2.65 Q10.35 1.65 8.5 1.1 L8.6 1.25 7.55 1.25 6.85 1.1 6.8 1.1 6.65 1.15 M14.9 7.45 Q14.9 10.5 12.7 12.7 L11.8 13.45 Q9.9 14.85 7.45 14.9 4.35 14.85 2.2 12.7 0.0 10.5 0.0 7.45 0.0 4.35 2.2 2.2 L3.2 1.3 Q5.05 0.0 7.45 0.0 9.75 0.0 11.55 1.25 L11.8 1.4 12.7 2.2 Q14.9 4.35 14.9 7.45" fill="#024b95" fill-rule="evenodd" stroke="none"/>
      <path d="M7.55 1.25 L8.6 1.25 8.5 1.1 Q10.35 1.65 11.55 2.65 L11.8 2.85 11.95 3.0 Q13.8 4.8 13.8 7.4 13.8 9.95 11.95 11.8 L11.8 11.9 Q10.0 13.6 7.45 13.65 4.85 13.6 3.0 11.8 1.1 9.95 1.15 7.4 1.1 4.8 3.0 3.0 L3.2 2.8 Q4.55 1.6 6.65 1.15 L6.8 1.15 6.9 1.25 7.55 1.25 M4.3 10.0 L4.35 10.0 4.3 9.95 4.3 10.0 M9.25 12.1 L9.15 12.15 9.2 12.1 9.25 12.1 M7.7 12.25 L6.7 11.95 6.2 11.7 7.7 12.25" fill="#e3e3e3" fill-rule="evenodd" stroke="none"/>
      <path d="M6.65 1.15 L6.8 1.1 6.85 1.1 7.55 1.25 6.9 1.25 6.8 1.15 6.65 1.15 M9.25 12.1 L9.3 12.0 9.25 12.1 9.2 12.1 9.15 12.15 9.25 12.1 M7.7 12.25 L6.2 11.7 6.7 11.95 7.7 12.25" fill="#1f8efe" fill-rule="evenodd" stroke="none"/>
      <path d="M4.3 10.0 L4.3 9.95 4.35 10.0 4.3 10.0" fill="#015eba" fill-rule="evenodd" stroke="none"/>
      <path d="M14.9 7.45 Q14.9 10.5 12.7 12.7 L11.8 13.45 Q9.9 14.85 7.45 14.9 4.35 14.85 2.2 12.7 0.0 10.5 0.0 7.45 0.0 4.35 2.2 2.2 L3.2 1.3 Q5.05 0.0 7.45 0.0 9.75 0.0 11.55 1.25 L11.8 1.4 12.7 2.2 Q14.9 4.35 14.9 7.45 Z" fill="none" stroke="#85c2fe" stroke-linecap="butt" stroke-linejoin="miter" stroke-miterlimit="3.0" stroke-width="0.5"/>
      <path d="M6.1 11.55 L5.55 11.2 7.35 11.6 Q8.1 11.55 8.7 11.0 9.85 9.9 10.1 6.8 L10.1 7.0 10.05 8.55 Q9.85 10.65 9.2 11.85 L9.1 11.95 9.1 12.0 9.05 12.0 7.6 12.1 6.6 11.8 6.1 11.55" fill="#e3e3e3" fill-rule="evenodd" stroke="none"/>
      <path d="M7.45 1.1 L8.5 1.1 Q10.95 5.9 10.95 8.0 10.95 13.75 6.2 12.6 4.05 11.65 4.2 9.85 L4.25 9.85 Q6.0 10.9 7.6 9.55 8.35 8.85 8.55 7.95 9.0 5.4 8.3 2.9 L8.1 2.15 Q7.95 1.35 7.45 1.1 M9.2 11.85 Q9.85 10.65 10.05 8.55 L10.1 7.0 10.1 6.8 Q9.85 9.9 8.7 11.0 8.1 11.55 7.35 11.6 L5.55 11.2 6.1 11.55 Q6.85 12.0 7.6 12.1 L9.05 12.0 9.1 12.0 9.1 11.95 9.2 11.85 9.1 12.0 9.2 11.85" fill="#024b95" fill-rule="evenodd" stroke="none"/>
      <path d="M7.45 1.1 Q7.95 1.35 8.1 2.15 L8.3 2.9 Q9.0 5.4 8.55 7.95 8.35 8.85 7.6 9.55 6.0 10.9 4.25 9.85 L4.2 9.8 Q4.3 8.55 5.5 6.9 8.25 2.9 6.8 1.1 L7.45 1.1" fill="#1f8efe" fill-rule="evenodd" stroke="none"/>
    </g>
  </defs>
</svg>
