<?xml version="1.0" encoding="UTF-8" standalone="no"?>
<svg xmlns:xlink="http://www.w3.org/1999/xlink" height="78.5px" width="78.5px" xmlns="http://www.w3.org/2000/svg">
  <g transform="matrix(5.0, 0.0, 0.0, 5.0, 0.0, 0.0)">
    <use height="15.7" transform="matrix(1.0, 0.0, 0.0, 1.0, 0.0, 0.0)" width="15.7" xlink:href="#shape0"/>
  </g>
  <defs>
    <g id="shape0" transform="matrix(1.0, 0.0, 0.0, 1.0, 0.0, 0.0)">
      <path d="M14.35 1.3 L14.35 14.55 1.1 14.55 1.1 1.3 14.35 1.3" fill="#e3e3e3" fill-rule="evenodd" stroke="none"/>
      <path d="M15.0 0.65 L15.0 15.15 0.5 15.15 0.5 0.65 15.0 0.65 M14.35 1.3 L1.1 1.3 1.1 14.55 14.35 14.55 14.35 1.3" fill="#024b95" fill-rule="evenodd" stroke="none"/>
      <path d="M0.0 0.0 L15.7 0.0 15.7 15.7 0.0 15.7 0.0 0.0 M15.0 0.65 L0.5 0.65 0.5 15.15 15.0 15.15 15.0 0.65" fill="#85c2fe" fill-rule="evenodd" stroke="none"/>
      <path d="M6.25 11.05 L5.7 10.7 7.5 11.1 Q8.25 11.05 8.85 10.5 10.0 9.4 10.25 6.3 L10.25 6.5 10.2 8.05 Q10.0 10.15 9.35 11.35 L9.3 11.45 9.25 11.45 9.2 11.5 7.75 11.6 6.75 11.3 6.25 11.05" fill="#e3e3e3" fill-rule="evenodd" stroke="none"/>
      <path d="M9.35 11.35 Q10.0 10.15 10.2 8.05 L10.25 6.5 10.25 6.3 Q10.0 9.4 8.85 10.5 8.25 11.05 7.5 11.1 L5.7 10.7 6.25 11.05 Q7.0 11.5 7.75 11.6 L9.2 11.5 9.25 11.45 9.3 11.45 9.35 11.35 M7.6 0.6 L8.65 0.6 Q11.1 5.4 11.1 7.5 11.1 13.25 6.35 12.1 4.2 11.15 4.35 9.35 L4.4 9.35 Q6.15 10.4 7.75 9.05 8.5 8.35 8.7 7.45 9.15 4.9 8.45 2.4 L8.25 1.65 Q8.1 0.85 7.6 0.6 M9.3 11.45 L9.2 11.5 9.3 11.45" fill="#024b95" fill-rule="evenodd" stroke="none"/>
      <path d="M4.4 9.35 L4.35 9.3 Q4.45 8.05 5.65 6.4 8.4 2.4 6.95 0.6 L7.6 0.6 Q8.1 0.85 8.25 1.65 L8.45 2.4 Q9.15 4.9 8.7 7.45 8.5 8.35 7.75 9.05 6.15 10.4 4.4 9.35" fill="#1f8efe" fill-rule="evenodd" stroke="none"/>
    </g>
  </defs>
</svg>
