<?xml version="1.0" encoding="UTF-8" standalone="no"?>
<svg xmlns:xlink="http://www.w3.org/1999/xlink" height="77.0px" width="77.0px" xmlns="http://www.w3.org/2000/svg">
  <g transform="matrix(5.0, 0.0, 0.0, 5.0, 1.25, 1.25)">
    <use height="15.4" transform="matrix(1.0, 0.0, 0.0, 1.0, -0.25, -0.25)" width="15.4" xlink:href="#shape0"/>
  </g>
  <defs>
    <g id="shape0" transform="matrix(1.0, 0.0, 0.0, 1.0, 0.25, 0.25)">
      <path d="M6.65 1.15 Q4.55 1.6 3.2 2.8 L3.0 3.0 Q1.75 4.2 1.35 5.75 1.1 6.5 1.15 7.4 L1.2 8.45 Q1.5 10.35 3.0 11.8 4.85 13.6 7.45 13.65 10.0 13.6 11.8 11.9 L11.95 11.8 Q13.4 10.35 13.7 8.45 L13.8 7.4 13.6 5.75 Q13.15 4.2 11.95 3.0 L11.8 2.85 11.55 2.65 Q10.4 1.65 8.6 1.1 L8.55 1.1 Q7.7 0.85 6.85 1.1 L6.8 1.1 6.65 1.15 M12.7 2.2 L14.25 4.4 Q14.9 5.8 14.9 7.45 L14.8 8.45 Q14.5 10.85 12.7 12.7 L11.8 13.45 Q9.9 14.85 7.45 14.9 4.35 14.85 2.2 12.7 0.35 10.85 0.05 8.45 L0.0 7.45 Q0.0 5.15 1.2 3.35 L2.2 2.2 3.2 1.3 3.5 1.1 3.85 0.9 Q5.45 0.0 7.45 0.0 9.4 0.0 11.05 0.9 L11.35 1.1 11.55 1.25 11.8 1.4 12.7 2.2" fill="#000000" fill-rule="evenodd" stroke="none"/>
      <path d="M8.6 1.1 Q10.4 1.65 11.55 2.65 L11.8 2.85 11.95 3.0 Q13.15 4.2 13.6 5.75 L13.8 7.4 13.7 8.45 Q13.4 10.35 11.95 11.8 L11.8 11.9 Q10.0 13.6 7.45 13.65 4.85 13.6 3.0 11.8 1.5 10.35 1.2 8.45 L1.15 7.4 Q1.1 6.5 1.35 5.75 1.75 4.2 3.0 3.0 L3.2 2.8 Q4.55 1.6 6.65 1.15 L6.8 1.15 6.85 1.1 Q7.7 0.85 8.55 1.1 L8.6 1.1 M8.5 1.1 L8.55 1.1 8.5 1.1 M6.8 12.0 L6.5 12.0 6.3 12.0 6.8 12.1 6.8 12.0 6.7 11.95 6.5 11.85 6.2 11.7 6.5 11.85 6.7 11.95 6.8 12.0" fill="#e3e3e3" fill-rule="evenodd" stroke="none"/>
      <path d="M12.7 2.2 L14.25 4.4 Q14.9 5.8 14.9 7.45 L14.8 8.45 Q14.5 10.85 12.7 12.7 L11.8 13.45 Q9.9 14.85 7.45 14.9 4.35 14.85 2.2 12.7 0.35 10.85 0.05 8.45 L0.0 7.45 Q0.0 5.15 1.2 3.35 L2.2 2.2 3.2 1.3 3.5 1.1 3.85 0.9 Q5.45 0.0 7.45 0.0 9.4 0.0 11.05 0.9 L11.35 1.1 11.55 1.25 11.8 1.4 12.7 2.2" fill="none" stroke="#330066" stroke-linecap="butt" stroke-linejoin="miter" stroke-miterlimit="3.0" stroke-width="0.5"/>
      <path d="M6.8 1.1 L6.85 1.1" fill="none" stroke="#666666" stroke-linecap="butt" stroke-linejoin="miter" stroke-miterlimit="3.0" stroke-width="0.05"/>
      <path d="M12.8 12.25 L9.35 9.75 Q8.8 10.2 8.05 10.25 L7.35 14.8 6.8 10.2 Q6.2 10.1 5.75 9.7 L2.05 12.45 4.9 8.8 4.6 8.0 4.55 7.75 0.0 7.0 4.6 6.5 Q4.7 5.9 5.1 5.45 L2.35 1.7 6.0 4.6 6.95 4.2 7.45 0.0 8.1 4.15 Q8.65 4.25 9.15 4.6 L9.25 4.65 12.6 1.95 10.1 5.45 10.15 5.55 10.55 6.5 10.6 6.6 14.85 7.1 10.6 7.8 10.6 7.9 10.2 8.9 12.8 12.25" fill="#663366" fill-rule="evenodd" stroke="none"/>
      <path d="M8.05 5.5 L7.6 5.3 8.05 5.4 8.5 5.55 8.8 5.8 Q9.45 6.35 9.5 7.25 9.55 8.05 8.95 8.65 L8.25 9.2 7.55 9.4 7.1 9.35 6.05 8.8 Q5.4 8.25 5.4 7.5 L5.4 7.35 5.4 6.9 5.45 7.1 5.45 7.15 5.5 7.45 5.55 7.5 5.95 8.05 Q6.4 8.45 7.05 8.45 L7.15 8.45 7.75 8.25 8.15 8.05 8.2 8.0 8.25 7.9 Q8.7 7.35 8.65 6.75 8.65 6.05 8.15 5.6 L8.05 5.5" fill="#e3e3e3" fill-rule="evenodd" stroke="none"/>
    </g>
  </defs>
</svg>
