<svg width="41.7" height="41.7" xmlns="http://www.w3.org/2000/svg">

 <g>
  <title>background</title>
  <rect fill="none" id="canvas_background" height="43.7" width="43.7" y="-1" x="-1"/>
 </g>
 <g>
  <title>Layer 1</title>
  <g id="svg_1" transform="matrix(2,0,0,2,1.7,-8.9) ">
   <path id="svg_2" stroke-width="2" stroke-miterlimit="3" stroke="#dad6b8" fill="none" d="m16.375,10.475l1.05,0.45l0.85,0.9l0.3,1.35l-0.25,1.2l-0.6,1l-1.2,0.8l-1.65,0.25l-1.45,0l0,3l-2.35,0l0,-9.1l3.85,0l1.45,0.15m-2.95,1.5l0,2.75l0.65,0l1,-0.05l0.65,-0.35l0.3,-0.4l0.15,-0.7l-0.25,-0.65l-0.45,-0.4l-0.7,-0.15l-0.95,-0.05l-0.4,0"/>
   <path id="svg_3" stroke-width="2" stroke-miterlimit="3" stroke="#dad6b8" fill="none" d="m7.125,10.325l2.6,0l-3.15,4.4l3.2,4.7l-2.7,0l-1.95,-3l-2,3l-2.55,0l3.2,-4.6l-3.15,-4.5l2.7,0l1.9,2.8l1.9,-2.8"/>
   <path id="svg_4" fill-rule="evenodd" fill="#000000" d="m16.375,10.475l1.05,0.45l0.85,0.9l0.3,1.35l-0.25,1.2l-0.6,1l-1.2,0.8l-1.65,0.25l-1.45,0l0,3l-2.35,0l0,-9.1l3.85,0l1.45,0.15m-2.95,1.5l0,2.75l0.65,0l1,-0.05l0.65,-0.35l0.3,-0.4l0.15,-0.7l-0.25,-0.65l-0.45,-0.4l-0.7,-0.15l-0.95,-0.05l-0.4,0m-10.1,-1.65l1.9,2.8l1.9,-2.8l2.6,0l-3.15,4.4l3.2,4.7l-2.7,0l-1.95,-3l-2,3l-2.55,0l3.2,-4.6l-3.15,-4.5l2.7,0"/>
  </g>
 </g>
</svg>