<?xml version="1.0" encoding="utf-8"?>
<!-- Generator: Adobe Illustrator 22.1.0, SVG Export Plug-In . SVG Version: 6.00 Build 0)  -->
<svg version="1.1"
	 id="Calque_1" xmlns:cc="http://creativecommons.org/ns#" xmlns:dc="http://purl.org/dc/elements/1.1/" xmlns:rdf="http://www.w3.org/1999/02/22-rdf-syntax-ns#"
	 xmlns="http://www.w3.org/2000/svg" xmlns:xlink="http://www.w3.org/1999/xlink" x="0px" y="0px" viewBox="0 0 211.3 228.9"
	 style="enable-background:new 0 0 211.3 228.9;" xml:space="preserve">
<style type="text/css">
	.st0{fill:#7DC23E;}
</style>
<path class="st0" d="M211.3,206.3v15.5c0,0.1,0,0.3-0.1,0.3l-6.2,6.7c-0.1,0.1-0.2,0.2-0.4,0.2h0l-8.6-0.5c-0.1,0-0.3-0.1-0.4-0.2
	l-8.3-9.7c0,0,0-0.1-0.1-0.1l-28.8-55.8l-32.2-40.1c0,0,0,0,0,0l-9.2-11.5V134l11.9,37.7l7.7,9.6l7.8,9.7c0.2,0.2,0.1,0.5-0.1,0.7
	l-9,7.8c-0.2,0.1-0.4,0.2-0.6,0l-3.7,3.4c-0.1,0.1-0.1,0.1-0.2,0.1c-21.7,5.2-39.2,5.5-52,1c-12.7-4.5-20.7-7.2-23.8-8.1
	c-0.1,0-0.1-0.1-0.2-0.1c-11.4-9.4-21.5-20.2-30.1-32.1C15.9,151.7,9.4,138.3,5.5,124c-6.1-21.9-7.1-44-2.9-65.6
	c2.3-11.8,6.9-22.6,13.7-32L26,14.8c0.1-0.1,0.2-0.2,0.4-0.2c0-0.2,0.1-0.4,0.3-0.5L60.5,0C60.7,0,60.9,0,61,0.1
	c0.1,0.1,0.2,0.2,0.2,0.4l1.2,17.5c0,0.3-0.2,0.5-0.5,0.5c-0.2,0-0.5-0.2-0.5-0.4l-5.5,1.2l1.7,2.3l16.6-3.5v-0.1
	c0-0.3,0.2-0.5,0.5-0.5c0.3,0,0.5,0.2,0.5,0.5v17.4l3.9,6.4c0,0,0,0,0,0l5.8,9.4c0,0,0,0,0,0l0.4,0.7l3.9,6.4h26l9.3-13.3
	c0.1-0.1,0.3-0.2,0.4-0.2h28.8c0.3,0,0.5,0.2,0.5,0.4l1.4-0.4c0,0,0.1,0,0.1,0h23c0.2,0,0.3,0.1,0.4,0.3c0.1,0.2,0.1,0.4,0,0.5
	l-4.2,6.5l-27.5,42c-0.1,0.1-0.3,0.2-0.4,0.2h-11.1l38.7,62.1l21.7,21.7l4.1,6l11,22.1C211.3,206.2,211.3,206.2,211.3,206.3z"/>
</svg>
