<?xml version="1.0" encoding="utf-8"?>
<!-- Generator: Adobe Illustrator 22.1.0, SVG Export Plug-In . SVG Version: 6.00 Build 0)  -->
<svg version="1.1"
	 id="Calque_1" xmlns:cc="http://creativecommons.org/ns#" xmlns:dc="http://purl.org/dc/elements/1.1/" xmlns:rdf="http://www.w3.org/1999/02/22-rdf-syntax-ns#"
	 xmlns="http://www.w3.org/2000/svg" xmlns:xlink="http://www.w3.org/1999/xlink" x="0px" y="0px" viewBox="0 0 41.5 56.9"
	 style="enable-background:new 0 0 41.5 56.9;" xml:space="preserve">
<style type="text/css">
	.st0{fill:#514A3C;}
</style>
<path class="st0" d="M38.4,27.5c-1-0.4-2-0.8-2.9-1.1c-0.6-0.2-1.2-0.4-1.7-0.5l2.1-1l1.2-0.3c0.3-0.1,0.4-0.4,0.3-0.6
	c-0.1-0.3-0.4-0.4-0.6-0.3L31.5,25c-1.3-1-2.3-2.5-2.9-4.5c0-0.5,0.1-1.1,0.2-1.6l3.7-1.7l1.2-0.5c0.2-0.1,0.4-0.4,0.2-0.7
	c-0.1-0.3-0.4-0.4-0.7-0.3l-1.1,0.5h0l-2.2,0.5l2.9-3.9c0.8-1.2,1.1-2.3,0.9-3.4c-0.2-1.1-1.1-2.2-2.7-3.1c-1.5-0.8-3.1-1.4-4.7-1.9
	c0,0,0,0,0,0l-4.2-1l-11.1-1c0,0,0,0,0,0L9,2.5c0,0,0,0,0,0H7.6L0.7,0c-0.3-0.1-0.5,0-0.6,0.3c0,0,0,0.1,0,0.1c0,0.1,0,0.1,0,0.2
	c0,0.2,0.1,0.4,0.3,0.5c2.1,1,3.7,2,4.9,3.2C6.1,5.3,6.7,6.2,7,7.2C7,7.5,7.3,7.6,7.5,7.6L10,7.1l14.6,39.5l-1.4,0.7
	c-0.2,0.1-0.3,0.3-0.3,0.5l0,0.5c0.2,2.1-0.3,4.4-1.7,7c-0.1,0.1-0.1,0.3,0,0.5c0.1,0.1,0.2,0.2,0.3,0.2l-0.2,0.9l0.5-0.8l0.3,0h0
	c0.2,0,0.3-0.1,0.4-0.2l2.8-4.6l1.2-1c0,0,0,0,0,0l1.4-1.2l0.2-0.1c0,0,0,0,0.1-0.1c3.5-3,6.1-5.6,7.9-7.7l1.6-1.9
	c1.4-1.9,2.6-3.9,3.5-6C42.1,30.6,41.1,28.7,38.4,27.5z M33.5,34.6c-0.2,0-0.3,0.2-0.4,0.3c-1.6,4.7-3.8,8.2-6.5,10.4l-1.1,0.7
	L11.1,7L12.5,7l2.8,0.3L18,7.9l2.9,1l3,1.4c0.1,0.1,0.2,0.1,0.3,0l1-0.3l0.3,0.7l0.3,1.5l-0.3,1.5c-0.4,0.8-0.9,1.5-1.5,2.1l-4.9-2
	c-0.2-0.1-0.5,0-0.6,0.2c-0.1,0.2-0.1,0.5,0.1,0.6l3.9,3.6c0.1,0.1,0.1,0.1,0.2,0.1l2.1,0.6c-0.1,0.5-0.2,0.9-0.1,1.3l0.5,2.5
	c0.3,1.3,1.4,2.7,3.3,4.1l-2.3,3.6c-0.1,0.2-0.1,0.3,0,0.5l1.8,3.5c0.1,0.2,0.3,0.3,0.5,0.3c0.2,0,0.4-0.2,0.4-0.4l0.7-3.5
	c1.4-0.2,2.6,0,3.3,0.5c0.7,0.5,1.2,1.5,1.4,2.7C34.5,34.2,34.4,34.4,33.5,34.6z"/>
</svg>
