<?xml version="1.0" encoding="utf-8"?>
<!-- Generator: Adobe Illustrator 22.1.0, SVG Export Plug-In . SVG Version: 6.00 Build 0)  -->
<svg version="1.1"
	 id="Calque_1" xmlns:cc="http://creativecommons.org/ns#" xmlns:dc="http://purl.org/dc/elements/1.1/" xmlns:rdf="http://www.w3.org/1999/02/22-rdf-syntax-ns#"
	 xmlns="http://www.w3.org/2000/svg" xmlns:xlink="http://www.w3.org/1999/xlink" x="0px" y="0px" viewBox="0 0 27.6 50.9"
	 style="enable-background:new 0 0 27.6 50.9;" xml:space="preserve">
<style type="text/css">
	.st0{fill:#7DC23E;}
</style>
<g>
	<path class="st0" d="M24.2,0l-0.5,3.8c0,0,0,0,0,0l0,0c-2.9,4.4-5.4,9.9-7.5,16.3c0,0,0,0,0,0c0,0,0,0,0,0
		c-0.2-0.2-0.5-0.1-0.8,0.2l0.7,0.3c0,0,0,0,0,0v0.4c0,0,0,0,0,0v0.1c0,0,0,0,0,0c0,0,0,0,0,0l-0.5,0.8c0,0,0,0,0,0h0L15.2,22
		l-0.1,0.4c0.3,0.2,0.3,0.6,0,1.2L8.5,37.9c-0.4,0.5-0.7,0.8-0.9,0.8c0,0,0,0,0,0c0,0,0,0,0,0l-0.3,0.5l0.3,0.2c0,0,0,0,0,0l0,0.3
		c-0.1,0.5-0.3,0.7-0.7,0.9c0,0,0,0,0,0l-0.7-0.3c0,0.4,0.1,0.7,0.3,0.8c0,0,0,0,0,0c0,0,0,0,0,0l-1.2,1.7l0,0.1
		c-0.9,1.5-1.6,3.3-2,5.2c0,0,0,0,0,0l-2.7,2.9c0,0,0,0,0,0l0,0c0,0,0,0,0,0c0.2-0.7,0.3-1.3,0.3-1.9c0-0.9-0.3-1.7-0.8-2.4
		c0,0,0,0,0,0s0,0,0,0c1.4-1.5,2.4-3.2,3-4.9c0,0,0,0,0,0c0,0,0,0,0,0l0.3-2.1c0,0,0,0,0,0c0,0,0,0,0,0L4,39.6l0.4-0.2l-0.1-0.1
		l-1-0.5c0,0,0,0,0,0c-0.2-0.3-0.3-0.5-0.2-0.7c0-0.2,0.3-0.4,0.6-0.6c0,0,0,0,0,0l0.5,0.1l0.2-0.5C4,36.9,3.9,36.5,4,35.8
		c0,0,0,0,0,0c0,0,0,0,0,0l6.7-14.2c0.3-0.5,0.5-0.7,0.9-0.7c0.1,0,0.2,0,0.3,0.1l0.3-0.4l-0.4-0.2c0,0,0,0,0,0
		c-0.2-0.7,0.1-1.1,0.7-1.3c0,0,0,0,0,0l1.2,0.5c-0.1-0.5-0.3-0.8-0.7-0.9c0,0,0,0,0,0c0,0,0,0,0,0l3.1-4.8l0.2-0.4l1.8-3.5l0.6-1.4
		l0.5-1.2c0.6-1.6,1.1-3.3,1.4-4.8c0,0,0,0,0,0v0l0,0h0l0,0c0.1,0,0.1,0,0.2,0C21.9,2.4,23,1.6,24.2,0C24.2,0,24.2,0,24.2,0
		C24.2,0,24.2,0,24.2,0z"/>
	<path class="st0" d="M27,16L27,16C27,16.1,27,16.1,27,16c-2.4,2.9-4.6,6.5-6.6,10.7c0,0,0,0,0,0l-0.5,0.1l0.4,0.3c0,0,0,0,0,0
		l0,0.3c0,0,0,0,0,0v0.1c0,0,0,0,0,0c0,0,0,0,0,0L19.7,28c0,0,0,0,0,0c0,0,0,0,0,0l-0.2-0.1l-0.1,0.3c0.2,0.1,0.2,0.4-0.1,0.8
		l-5.8,9.3c0,0,0,0,0,0l-0.8,0.5l0,0l0,0l-0.2,0.3l0.1,0.1c0,0,0,0,0,0l0,0.2c0,0,0,0,0,0L12.1,40c0,0,0,0,0,0l-0.4-0.3
		c-0.1,0.3,0,0.5,0.1,0.5c0,0,0,0,0,0c0,0,0,0,0,0l-1,1.1c-0.8,1-1.4,2.2-1.9,3.5v0l-2,1.8c0,0,0,0,0,0s0,0,0,0c0,0,0,0,0,0
		c0.5-1,0.5-2.1,0.1-3c0,0,0,0,0,0c0,0,0,0,0,0v0c1.1-0.9,1.9-2,2.4-3.2L9.8,39c0,0,0,0,0,0s0,0,0,0l0.5,0.1l0.3-0.1L10.5,39
		l-0.6-0.4c0,0,0,0,0,0c-0.1-0.2-0.1-0.4-0.1-0.5c0.1-0.2,0.2-0.3,0.5-0.4c0,0,0,0,0,0l0.3,0.2l0.2-0.3c-0.1-0.1-0.2-0.3-0.2-0.5
		c0-0.1,0-0.3,0.1-0.5c0,0,0,0,0,0l5.8-9.3c0.2-0.3,0.4-0.4,0.6-0.4c0.1,0,0.2,0,0.3,0.1l0.2-0.2l-0.3-0.2c0,0,0,0,0,0
		c0-0.5,0.2-0.8,0.6-0.8c0,0,0,0,0,0l0.8,0.5c0-0.3-0.2-0.5-0.4-0.6c0,0,0,0,0,0c0,0,0,0,0,0l2.6-3.1l0.2-0.2l1.5-2.3l0.5-0.9
		l0.5-0.9l1.4-3.2v0l0-0.1h0c0,0,0,0,0,0c0.8,0.2,1.7-0.3,2.6-1.3c0,0,0,0,0,0c0,0,0,0,0,0L27,16z"/>
</g>
</svg>
