<?xml version="1.0" encoding="utf-8"?>
<!-- Generator: Adobe Illustrator 22.1.0, SVG Export Plug-In . SVG Version: 6.00 Build 0)  -->
<svg version="1.1"
	 id="Calque_1" xmlns:cc="http://creativecommons.org/ns#" xmlns:dc="http://purl.org/dc/elements/1.1/" xmlns:rdf="http://www.w3.org/1999/02/22-rdf-syntax-ns#"
	 xmlns="http://www.w3.org/2000/svg" xmlns:xlink="http://www.w3.org/1999/xlink" x="0px" y="0px" viewBox="0 0 33.3 46.1"
	 style="enable-background:new 0 0 33.3 46.1;" xml:space="preserve">
<style type="text/css">
	.st0{fill:#7DC23E;}
</style>
<path class="st0" d="M33.2,14.8c0,0.1-0.1,0.1-0.1,0.2l-1.6,2.7c0,0-0.1,0.1-0.1,0.1l-0.5,0.5l-0.3,0.5c0,0.1,0,0.3,0,0.4l-4.4,7.5
	C26.1,26.9,26,27,25.9,27c-0.1,0-0.3,0-0.4-0.1l-6-3.9c-4.4,7.8-7.3,13.5-8.6,16.9c-0.9,2.2-0.9,3-0.9,3.2c0.3,1.6,0.2,2.4-0.3,2.8
	c-0.1,0.1-0.3,0.2-0.5,0.2c-0.2,0-0.3,0-0.5-0.1l-2.5-0.7L5,45.1l-0.1,0c-0.1,0-0.1,0-0.2,0c-1.1-0.2-1.8-0.5-2.1-0.9
	c-0.1-0.1-0.1-0.2-0.1-0.3c-0.8,0-1.2-0.1-1.4-0.3c0,0-0.1-0.1-0.1-0.2l-0.2-0.3c0,0,0-0.1-0.1-0.1L0,40.8c0-0.1,0-0.2,0-0.3
	l0.3-0.8c0.1-0.2,0.3-0.4,0.5-0.3c0,0,0.8-0.4,3.1-4.8c1.7-3.4,5-8.4,9.6-14.9c-0.1-0.1-0.1-0.2-0.1-0.3l-0.8-0.4
	c-0.1,0.1-0.3,0.1-0.5,0l-3-1.7c-0.1,0-0.1-0.1-0.2-0.1l-1.3-1.8c-0.1-0.1-0.1-0.2-0.1-0.3l-0.1-2.5c-0.1-0.1-0.1-0.3,0-0.4l0-0.1
	c0,0,0-0.1,0-0.1l0.8-1.3c0,0,0-0.1,0.1-0.1l0.3-0.3l0.4-0.8l0.1-0.3c0,0,0-0.1,0-0.1l5.1-8.8c0.1-0.2,0.5-0.3,0.7-0.2l3.1,1.8
	c0,0,0.1,0.1,0.1,0.1l0.3,0.3l0.4,0.2c0.2-0.1,0.3-0.1,0.5,0l3,1.9c0,0,0,0,0,0l0.3-0.1c0,0,0.1,0,0.2,0h0.2l0.1,0
	c0.1,0,0.2,0,0.3,0l0.7,0.3l1.3,0.5c0.5,0.2,0.8,0.4,1,0.6l0.3,0.4C27,6.3,27,6.3,27,6.4l0,0.4c0,0.1,0,0.1,0,0.2l0,0l4.4,2.5
	c0,0,0.1,0.1,0.1,0.1l0.7,0.9l0.3,0c0,0,0,0,0,0c0,0,0,0,0,0c0,0,0.1,0,0.1,0c0,0,0,0,0.1,0c0,0,0,0,0.1,0.1c0,0,0,0,0,0.1
	c0,0,0,0.1,0,0.1c0,0,0,0,0,0v0c0,0,0,0,0,0l0.2,3.4C33.2,14.6,33.2,14.7,33.2,14.8z"/>
</svg>
