<?xml version="1.0" encoding="utf-8"?>
<!-- Generator: Adobe Illustrator 22.1.0, SVG Export Plug-In . SVG Version: 6.00 Build 0)  -->
<svg version="1.1"
	 id="Calque_1" xmlns:cc="http://creativecommons.org/ns#" xmlns:dc="http://purl.org/dc/elements/1.1/" xmlns:rdf="http://www.w3.org/1999/02/22-rdf-syntax-ns#"
	 xmlns="http://www.w3.org/2000/svg" xmlns:xlink="http://www.w3.org/1999/xlink" x="0px" y="0px" viewBox="0 0 29.5 50.2"
	 style="enable-background:new 0 0 29.5 50.2;" xml:space="preserve">
<style type="text/css">
	.st0{fill:#514A3C;}
</style>
<path class="st0" d="M29.5,8.9C29.5,8.9,29.5,8.9,29.5,8.9L29.2,10c0,0,0,0,0,0l-0.3,0.3c0,0,0.1,0.1,0.1,0.1c0.1,0.2,0,0.5-0.2,0.7
	l-0.3,0.2c-0.3,0.1-0.5,0.2-0.7,0.2c-0.3,0-0.5-0.1-0.6-0.2l-0.3-0.2l-3.2-2.5L12,34.4c2,1.4,4.4,2.9,7.1,4.2c0,0,0,0,0,0v0
	l-0.1,0.2h0c0,0,0,0,0,0s0,0,0,0h0L9.8,48c0.2,0.2,0.2,0.5,0,0.7l-0.1,0c-1.3,1-2.8,1.5-4.3,1.5c-1,0-2.1-0.2-3.3-0.7L2,49.5
	c0,0,0,0-0.1-0.1c0,0,0,0-0.1,0l0,0c0,0,0,0,0,0c0,0,0,0,0,0c-0.9-1.2-1.4-2.4-1.6-3.7h0l0-0.2c0,0,0-0.1,0-0.1v0L0,44.3
	c-0.1-0.6,0-1.6,0.4-3.1c0-0.1,0-0.2,0.1-0.2l3.3-14.1c0-0.1,0.1-0.2,0.1-0.2c0.2-0.2,0.6-0.3,0.8-0.1c0.1,0.1,0.2,0.4,0.1,0.5
	c0.9,1.4,2.1,2.9,3.6,4.2L20.2,5.9l-3.7-2.8c-0.1,0-0.1-0.1-0.1-0.2l-0.1-0.2L16,2.3c0-0.1,0-0.1,0-0.2l0.1-0.7c0,0,0-0.1,0-0.1
	l0.2-0.4l0.4-0.6C16.9,0,17.2,0,17.5,0.1c0,0,0.1,0.1,0.1,0.1l0.2-0.1c0.4-0.1,0.7-0.1,1,0h0l0.1,0.1h0c0,0,0,0,0,0L29,8.1h0
	c0,0,0,0,0,0l0.3,0.3c0,0,0,0,0,0L29.5,8.9z"/>
</svg>
