<?xml version="1.0" encoding="utf-8"?>
<!-- Generator: Adobe Illustrator 22.1.0, SVG Export Plug-In . SVG Version: 6.00 Build 0)  -->
<svg version="1.1"
	 id="Calque_1" xmlns:cc="http://creativecommons.org/ns#" xmlns:dc="http://purl.org/dc/elements/1.1/" xmlns:rdf="http://www.w3.org/1999/02/22-rdf-syntax-ns#"
	 xmlns="http://www.w3.org/2000/svg" xmlns:xlink="http://www.w3.org/1999/xlink" x="0px" y="0px" viewBox="0 0 36.1 44.2"
	 style="enable-background:new 0 0 36.1 44.2;" xml:space="preserve">
<style type="text/css">
	.st0{fill:#ECA272;}
</style>
<path class="st0" d="M36.1,6.8c-0.2,1.8-0.7,3.1-1.6,3.7c-0.6,0.4-1.4,0.6-2.3,0.4l-1.5-0.3l-0.8-0.3C22.5,20.3,14.3,31.6,5.4,44v0
	l0,0c0,0,0,0,0,0h0l-0.1,0.1L5.2,44l0,0c-1.9,0-3.1-0.3-3.7-0.8l-1-0.9c0,0,0,0,0-0.1c0,0,0,0,0,0C0.1,41.8,0,41.4,0,40.8l0,0l0,0
	c0,0,0,0,0,0c0.4-1,0.8-1.8,1.4-2.6l1-1.6c0,0,0,0,0.1,0c0,0,0,0,0,0l8.4-10.8l0.2-0.3c0.3-0.4,1.1-1.2,2.5-2.4l1-1.1
	c1-1.1,2-2.6,2.9-4.4L20,13l1-1.8c1.1-1.8,1.9-3.6,2.4-5.3c0.5-1.7,1.5-3.3,3.1-4.7c1.6-1.4,3.7-1.6,6.3-0.7
	C35.3,1.5,36.4,3.6,36.1,6.8z"/>
</svg>
