<?xml version="1.0" encoding="utf-8"?>
<!-- Generator: Adobe Illustrator 22.1.0, SVG Export Plug-In . SVG Version: 6.00 Build 0)  -->
<svg version="1.1"
	 id="Calque_1" xmlns:cc="http://creativecommons.org/ns#" xmlns:dc="http://purl.org/dc/elements/1.1/" xmlns:rdf="http://www.w3.org/1999/02/22-rdf-syntax-ns#"
	 xmlns="http://www.w3.org/2000/svg" xmlns:xlink="http://www.w3.org/1999/xlink" x="0px" y="0px" viewBox="0 0 49.4 55.9"
	 style="enable-background:new 0 0 49.4 55.9;" xml:space="preserve">
<style type="text/css">
	.st0{fill:#514A3C;}
</style>
<g>
	<path class="st0" d="M27,34.5c-0.9,0.7-0.9-0.4,0-3l-1.2,1.8l-0.8,1.2l-0.5,0.8c0.6,3.5,1.2,4.3,2,2.3c0.7-2.1,2-3.2,3.9-3.4
		C29,33.6,27.8,33.7,27,34.5z"/>
	<path class="st0" d="M32.3,31.1l1.2-2.2l0.3,0.2l1,0.2c0.6-0.1,1.3-0.4,1.8-0.8l2.7-2.8l0.6-0.8L39,25.5c-2,1.6-3.3,2.3-4,2.1
		l-0.2-0.1c-0.3-0.3-0.4-0.9-0.1-2l0.5-1.7l0.5-1.7c1.2-2.3,2.9-3.1,5.1-2.5c-2.4-2.9-4.7-2.9-6.9,0.1c-0.5,0.9-1.1,1-1.7,0.2
		l0.9-1.3c0.9-0.8,1.6-1.8,2.1-3l2.6,0.5c-0.8-0.6-1.6-1-2.4-1.3l0.5-1.5l0.3-1.2l0.2-1.5l0.2-4.3L35.8,10l-1.3,3.8l-0.3,0.5
		c-1.9-0.3-3.7,0.3-5.4,2l-0.3,0.2c-1.9,1.9-1.7,0.8,0.7-3.4c-1.4,1.2-2.5,2.6-3.3,4.1l-0.7,1.6l-0.6,2.4c-1-0.2-1.1-1.4-0.5-3.6
		l0-0.3L24,17.5l-1.7,1.3c-1.8,1.7-1.5,3.7,1,6l0.5,0.5c0.3,0.5,0.4,1.2,0.2,2.1L23.7,28l-0.5,1l-0.2,0.3l-0.8,1l0.7-1.2L23,29
		c-0.7-0.6-0.8-1-0.3-1.1l0,0l0.3-0.1l0.1-0.1l0.1-0.1l0.5-0.4l0.1-0.6l-0.1-0.3l-0.3,0.5l-1.4,0c-0.8,0-0.9,0.5-0.3,1.7
		c0.5,0.4,0.5,0.8,0.2,1.2c-1.1,1.1-1.3,1.6-0.7,1.5c-0.6,0.5-1,0.9-1,1.1c-2.4,2-3.9,3.7-4.4,5c-1,0-1.6,0.4-1.8,1
		C12.7,41.2,8.2,45.8,0.8,52c-0.1,0-0.2,0.1-0.2,0.2l-0.3,0.4c-0.2,0.3-0.5,0.9,0.1,1.7c0.3,0.4,0.8,0.8,1.5,1.2l0.8,0.3
		c0,0,0.1,0,0.1,0l0.9,0c0.1,0,0.1,0,0.2,0c0.5,0,0.9-0.2,1.2-0.5c0,0,0.1-0.1,0.1-0.1l0.2-0.5c0,0,0,0,0-0.1l9.9-13.9
		C15.6,41,16,41,16.3,41c0.5-0.1,0.9-0.5,1.3-1.1c0,0,0-0.1,0.1-0.1c0.8-3,3-5.4,6.3-7.1H24c0.2,0,0.3-0.1,0.4-0.2l0.1-0.1
		c0.5-0.1,1.2-0.3,1.9-0.5l0,0l0.3,0.1l0.5-0.5c0-0.1,0.1-0.1,0.1-0.1c0,0,0,0,0.1,0l0.8-0.6l0.8-0.6l0,0l-0.3,0.5l0.5,1.4
		c0.3,0.6,0.7,1,1.1,1.1l0.9-0.3c-0.2,2.1,2.3,1.4,7.3-2.1l1.8-1.3l-2.1,1.1C33.1,33.1,31.3,33.2,32.3,31.1z M31.5,17.3
		c0-1.1,0.7-1.8,2-1.8C32.8,16.3,32.2,16.9,31.5,17.3z"/>
	<path class="st0" d="M28,11.6c0.8,0.5,1.7,0.7,2.7,0.5c1-0.2,1.7-0.7,2.2-1.6c0.5-0.8,0.7-1.7,0.5-2.7c-0.2-1-0.7-1.7-1.6-2.2
		C31,5,30.1,4.9,29.2,5.1c-1,0.2-1.7,0.7-2.2,1.6c-0.5,0.8-0.7,1.7-0.5,2.7C26.7,10.3,27.2,11.1,28,11.6z"/>
	<path class="st0" d="M41,8.4c-0.5-0.3-1-0.4-1.6-0.3c-0.6,0.1-1,0.5-1.4,1c-0.3,0.5-0.4,1-0.3,1.6c0.1,0.6,0.4,1,1,1.4
		c0.5,0.3,1,0.4,1.6,0.3c0.6-0.1,1-0.4,1.4-0.9c0.3-0.5,0.4-1,0.3-1.6C41.8,9.2,41.5,8.7,41,8.4z"/>
	<path class="st0" d="M36.5,4c0.5,0.3,1,0.4,1.6,0.3c0.6-0.1,1-0.4,1.4-0.9c0.3-0.5,0.4-1,0.3-1.6c-0.1-0.6-0.4-1-1-1.3
		c-0.5-0.3-1-0.4-1.6-0.3c-0.6,0.1-1,0.5-1.4,1c-0.3,0.5-0.4,1-0.3,1.6C35.7,3.2,36,3.7,36.5,4z"/>
	<path class="st0" d="M49.3,4.2c-0.1-0.6-0.4-1-1-1.3c-0.5-0.3-1-0.4-1.6-0.3c-0.6,0.1-1,0.5-1.4,1c-0.3,0.5-0.4,1-0.3,1.6
		c0.1,0.6,0.4,1,1,1.4c0.5,0.3,1,0.4,1.6,0.3c0.6-0.1,1-0.4,1.4-0.9C49.4,5.4,49.5,4.8,49.3,4.2z"/>
</g>
</svg>
